<svg width="25" height="24" viewBox="0 0 25 24" fill="none" xmlns="http://www.w3.org/2000/svg">
<g clip-path="url(#clip0_22_712)">
<path d="M21.9844 6H18.8144L16.9844 4H10.9844V6H16.1044L17.9344 8H21.9844V20H5.98438V11H3.98438V20C3.98438 21.1 4.88438 22 5.98438 22H21.9844C23.0844 22 23.9844 21.1 23.9844 20V8C23.9844 6.9 23.0844 6 21.9844 6ZM8.98438 14C8.98438 16.76 11.2244 19 13.9844 19C16.7444 19 18.9844 16.76 18.9844 14C18.9844 11.24 16.7444 9 13.9844 9C11.2244 9 8.98438 11.24 8.98438 14ZM13.9844 11C15.6344 11 16.9844 12.35 16.9844 14C16.9844 15.65 15.6344 17 13.9844 17C12.3344 17 10.9844 15.65 10.9844 14C10.9844 12.35 12.3344 11 13.9844 11ZM5.98438 6H8.98438V4H5.98438V1H3.98438V4H0.984375V6H3.98438V9H5.98438V6Z" fill="#222222"/>
</g>
<defs>
<clipPath id="clip0_22_712">
<rect width="24" height="24" fill="white" transform="translate(0.984375)"/>
</clipPath>
</defs>
</svg>
