<svg width="17" height="20" viewBox="0 0 17 20" fill="none" xmlns="http://www.w3.org/2000/svg">
<path d="M8.98438 19.5C10.0844 19.5 10.9844 18.6 10.9844 17.5H6.98438C6.98438 18.6 7.88438 19.5 8.98438 19.5ZM14.9844 13.5V8.5C14.9844 5.43 13.3544 2.86 10.4844 2.18V1.5C10.4844 0.67 9.81437 0 8.98438 0C8.15438 0 7.48438 0.67 7.48438 1.5V2.18C4.62438 2.86 2.98438 5.42 2.98438 8.5V13.5L0.984375 15.5V16.5H16.9844V15.5L14.9844 13.5ZM12.9844 14.5H4.98438V8.5C4.98438 6.02 6.49438 4 8.98438 4C11.4744 4 12.9844 6.02 12.9844 8.5V14.5Z" fill="#222222"/>
</svg>
