<svg width="25" height="24" viewBox="0 0 25 24" fill="none" xmlns="http://www.w3.org/2000/svg">
<g clip-path="url(#clip0_22_654)">
<path d="M12.9844 6C15.6044 6 17.8644 7.86 18.3744 10.43L18.6744 11.93L20.2044 12.04C21.7644 12.14 22.9844 13.45 22.9844 15C22.9844 16.65 21.6344 18 19.9844 18H6.98438C4.77437 18 2.98438 16.21 2.98438 14C2.98438 11.95 4.51437 10.24 6.54437 10.03L7.61438 9.92L8.11438 8.97C9.06437 7.14 10.9244 6 12.9844 6ZM12.9844 4C10.0944 4 7.58437 5.64 6.33437 8.04C3.32437 8.36 0.984375 10.91 0.984375 14C0.984375 17.31 3.67438 20 6.98438 20H19.9844C22.7444 20 24.9844 17.76 24.9844 15C24.9844 12.36 22.9344 10.22 20.3344 10.04C19.6544 6.59 16.6244 4 12.9844 4Z" fill="#222222"/>
</g>
<defs>
<clipPath id="clip0_22_654">
<rect width="24" height="24" fill="white" transform="translate(0.984375)"/>
</clipPath>
</defs>
</svg>
