<svg width="25" height="24" viewBox="0 0 25 24" fill="none" xmlns="http://www.w3.org/2000/svg">
<path d="M21.5544 10.66C21.4144 10.26 21.0344 10 20.5844 10H13.3944C12.9344 10 12.5644 10.26 12.4144 10.66L10.9844 14.77L10.9944 20.28C10.9944 20.66 11.3044 21 11.6844 21H12.3044C12.6844 21 12.9844 20.62 12.9844 20.24V19H20.9844V20.24C20.9844 20.62 21.2944 21 21.6744 21H22.2844C22.6644 21 22.9744 20.66 22.9744 20.28L22.9844 18.91V14.77L21.5544 10.66ZM13.3944 11H20.5844L21.6144 14H12.3644L13.3944 11ZM12.9844 17C12.4344 17 11.9844 16.55 11.9844 16C11.9844 15.45 12.4344 15 12.9844 15C13.5344 15 13.9844 15.45 13.9844 16C13.9844 16.55 13.5344 17 12.9844 17ZM20.9844 17C20.4344 17 19.9844 16.55 19.9844 16C19.9844 15.45 20.4344 15 20.9844 15C21.5344 15 21.9844 15.45 21.9844 16C21.9844 16.55 21.5344 17 20.9844 17Z" fill="#222222"/>
<path d="M14.9844 9H15.9844V3H7.98438V8H2.98438V21H3.98438V9H8.98438V4H14.9844V9Z" fill="#222222"/>
<path d="M7.98438 11H5.98438V13H7.98438V11Z" fill="#222222"/>
<path d="M12.9844 5H10.9844V7H12.9844V5Z" fill="#222222"/>
<path d="M7.98438 15H5.98438V17H7.98438V15Z" fill="#222222"/>
<path d="M7.98438 19H5.98438V21H7.98438V19Z" fill="#222222"/>
</svg>
