<svg width="25" height="24" viewBox="0 0 25 24" fill="none" xmlns="http://www.w3.org/2000/svg">
<path d="M12.9844 2C9.11438 2 5.98438 5.13 5.98438 9C5.98438 14.25 12.9844 22 12.9844 22C12.9844 22 19.9844 14.25 19.9844 9C19.9844 5.13 16.8544 2 12.9844 2ZM7.98438 9C7.98438 6.24 10.2244 4 12.9844 4C15.7444 4 17.9844 6.24 17.9844 9C17.9844 11.88 15.1044 16.19 12.9844 18.88C10.9044 16.21 7.98438 11.85 7.98438 9Z" fill="#222222"/>
<path d="M12.9844 11.5C14.3651 11.5 15.4844 10.3807 15.4844 9C15.4844 7.61929 14.3651 6.5 12.9844 6.5C11.6037 6.5 10.4844 7.61929 10.4844 9C10.4844 10.3807 11.6037 11.5 12.9844 11.5Z" fill="#222222"/>
</svg>
