<svg width="25" height="24" viewBox="0 0 25 24" fill="none" xmlns="http://www.w3.org/2000/svg">
<path d="M21.9244 11C21.4644 6.83 18.1544 3.52 13.9844 3.06V1H11.9844V3.06C7.81437 3.52 4.50437 6.83 4.04437 11H1.98438V13H4.04437C4.50437 17.17 7.81437 20.48 11.9844 20.94V23H13.9844V20.94C18.1544 20.48 21.4644 17.17 21.9244 13H23.9844V11H21.9244ZM12.9844 19C9.11438 19 5.98438 15.87 5.98438 12C5.98438 8.13 9.11438 5 12.9844 5C16.8544 5 19.9844 8.13 19.9844 12C19.9844 15.87 16.8544 19 12.9844 19Z" fill="#222222"/>
</svg>
