<svg width="19" height="18" viewBox="0 0 19 18" fill="none" xmlns="http://www.w3.org/2000/svg">
<path d="M18.4844 0L18.3244 0.03L12.9844 2.1L6.98438 0L1.34437 1.9C1.13437 1.97 0.984375 2.15 0.984375 2.38V17.5C0.984375 17.78 1.20437 18 1.48438 18L1.64438 17.97L6.98438 15.9L12.9844 18L18.6244 16.1C18.8344 16.03 18.9844 15.85 18.9844 15.62V0.5C18.9844 0.22 18.7644 0 18.4844 0ZM7.98438 2.47L11.9844 3.87V15.53L7.98438 14.13V2.47ZM2.98438 3.46L5.98438 2.45V14.15L2.98438 15.31V3.46ZM16.9844 14.54L13.9844 15.55V3.86L16.9844 2.7V14.54Z" fill="#222222"/>
</svg>
