<svg width="25" height="24" viewBox="0 0 25 24" fill="none" xmlns="http://www.w3.org/2000/svg">
<path d="M18.6444 7.99961L12.9844 2.34961L7.32438 7.99961C5.76438 9.55961 4.98438 11.6396 4.98438 13.6396C4.98438 15.6396 5.76438 17.7496 7.32438 19.3096C8.88438 20.8696 10.9344 21.6596 12.9844 21.6596C15.0344 21.6596 17.0844 20.8696 18.6444 19.3096C20.2044 17.7496 20.9844 15.6396 20.9844 13.6396C20.9844 11.6396 20.2044 9.55961 18.6444 7.99961ZM6.98438 13.9996C6.99437 11.9996 7.60438 10.7296 8.74438 9.59961L12.9844 5.26961L17.2244 9.64961C18.3644 10.7696 18.9744 11.9996 18.9844 13.9996H6.98438Z" fill="#222222"/>
</svg>
