<svg width="31" height="31" viewBox="0 0 31 31" fill="none" xmlns="http://www.w3.org/2000/svg">
<path d="M15.1641 10.0381C12.4041 10.0381 10.1641 12.2781 10.1641 15.0381C10.1641 17.7981 12.4041 20.0381 15.1641 20.0381C17.9241 20.0381 20.1641 17.7981 20.1641 15.0381C20.1641 12.2781 17.9241 10.0381 15.1641 10.0381ZM15.1641 5.03809C9.64406 5.03809 5.16406 9.51809 5.16406 15.0381C5.16406 20.5581 9.64406 25.0381 15.1641 25.0381C20.6841 25.0381 25.1641 20.5581 25.1641 15.0381C25.1641 9.51809 20.6841 5.03809 15.1641 5.03809ZM15.1641 23.0381C10.7441 23.0381 7.16406 19.4581 7.16406 15.0381C7.16406 10.6181 10.7441 7.03809 15.1641 7.03809C19.5841 7.03809 23.1641 10.6181 23.1641 15.0381C23.1641 19.4581 19.5841 23.0381 15.1641 23.0381Z" fill="#222222"/>
<circle cx="15.2025" cy="15.0384" r="13.5384" stroke="#222222" stroke-width="3"/>
</svg>
