<svg width="25" height="24" viewBox="0 0 25 24" fill="none" xmlns="http://www.w3.org/2000/svg">
<path d="M16.4844 14H15.6944L15.4144 13.73C16.3944 12.59 16.9844 11.11 16.9844 9.5C16.9844 5.91 14.0744 3 10.4844 3C6.89438 3 3.98438 5.91 3.98438 9.5C3.98438 13.09 6.89438 16 10.4844 16C12.0944 16 13.5744 15.41 14.7144 14.43L14.9844 14.71V15.5L19.9844 20.49L21.4744 19L16.4844 14ZM10.4844 14C7.99438 14 5.98438 11.99 5.98438 9.5C5.98438 7.01 7.99438 5 10.4844 5C12.9744 5 14.9844 7.01 14.9844 9.5C14.9844 11.99 12.9744 14 10.4844 14Z" fill="#222222"/>
</svg>
