<?xml version="1.0" encoding="utf-8"?>
<!-- Generator: Adobe Illustrator 23.1.1, SVG Export Plug-In . SVG Version: 6.00 Build 0)  -->
<svg version="1.1" id="kartverket" xmlns="http://www.w3.org/2000/svg" xmlns:xlink="http://www.w3.org/1999/xlink" x="0px" y="0px"
	 viewBox="0 0 124.5 90.2" style="enable-background:new 0 0 124.5 90.2;" xml:space="preserve">
<style type="text/css">
	.st0{fill:#249446;}
	.st1{fill:#1A589F;}
	.st2{fill:#FFFFFF;}
	.st3{enable-background:new    ;}
</style>
<path class="st0" d="M77.1,2.1H42.6c-1.7,0-3.1,1.4-3.1,3.1v21.2c2.7-2.1,6.1-4.9,12.2-3.4c5.3,1.3,6.4,5.4,14.8,10
	c5.1,2.8,9.9,0.6,13.8-1.6V5.3C80.3,3.5,78.9,2.1,77.1,2.1"/>
<path class="st1" d="M69.2,42.4c-1.7-0.2-3.1-0.8-4.4-1.7c-2.9-1.8-5.7-4.7-11.7-7.8c-4.7-2.3-9.4-0.5-13.6,1.9l0,0v23.7
	c0,1.7,1.4,3.1,3.1,3.1h34.5c1.7,0,3.1-1.4,3.1-3.1V39.2C76.6,41.3,73.1,43,69.2,42.4"/>
<path class="st2" d="M66.5,33c-8.3-4.6-9.5-8.7-14.8-10c-6.1-1.5-9.5,1.4-12.2,3.4v4.3v4.1c4.2-2.4,8.9-4.3,13.6-1.9
	c6,3.1,8.8,6,11.7,7.8c1.3,0.8,2.7,1.4,4.4,1.7c3.9,0.6,7.4-1.1,11.1-3.2v-3.8v-4.1C76.4,33.6,71.6,35.8,66.5,33"/>
<g class="st3">
	<path d="M2.6,87.5V68.4H5v19.1H2.6z M7.7,77.4l7.6,10.1h-2.9L5.1,77.4l7.4-9h2.9L7.7,77.4z"/>
	<path d="M27,88c-0.9-0.3-1.6-1.1-1.9-2c-1.3,1.3-2.4,1.9-4,1.9c-3.4,0-4.5-2.1-4.5-4c0-3.1,2.7-5,7.4-5c0.3,0,0.5,0,1,0v-1
		c0-1.2-0.1-1.7-0.4-2.2c-0.4-0.5-1-0.8-1.9-0.8c-1.6,0-3.5,0.8-4.4,1.6l-1.1-1.6c1.8-1.2,3.8-1.9,5.8-1.9c1.9,0,3.3,0.8,3.8,2.2
		c0.3,0.8,0.3,1.8,0.3,3.1L27,83.1c-0.1,2.3,0.1,2.8,1.1,3.4L27,88z M23.8,80.4c-3.5,0-4.8,1.2-4.8,3.3c0,1.6,0.8,2.5,2.4,2.5
		c1.4,0,2.7-0.9,3.4-2.2l0.1-3.6C24.6,80.4,24.1,80.4,23.8,80.4z"/>
	<path d="M38.2,75.7c-0.1-0.1-0.4-0.1-0.6-0.1c-0.8,0-1.7,0.4-2.3,1c-0.6,0.6-0.8,1.1-0.8,2.2v8.7h-2.2V76.8c0-1.8-0.4-2.8-0.5-3
		l2.2-0.6c0.1,0.2,0.5,1.2,0.4,2.3c1-1.4,2.5-2.3,3.9-2.3c0.3,0,0.7,0.1,0.8,0.1L38.2,75.7z"/>
	<path d="M46.8,75.3h-2.9v8.9c0,1.5,0.4,2.1,1.8,2.1c0.6,0,1-0.1,1.4-0.3l0.3,1.4c-0.7,0.4-1.5,0.6-2.5,0.6c-0.7,0-1.3-0.1-1.8-0.4
		c-1-0.5-1.3-1.4-1.3-2.8v-9.5h-1.8v-1.6h1.8c0-1.2,0.2-3.1,0.2-3.5l2.3-0.5c-0.1,0.4-0.3,2.4-0.3,4h3.5L46.8,75.3z"/>
	<path d="M55.5,87.6h-2.1l-5-13.9l2.2-0.5l3.2,9.6c0.3,1,0.6,2.1,0.7,2.4h0.1c0.1-0.2,0.3-1.2,0.7-2.3l3.2-9.2h2.3L55.5,87.6z"/>
	<path d="M65.2,80.9v0.3c0,1.3,0.2,2.3,0.6,3c0.8,1.2,2.1,1.7,3.5,1.7c1.3,0,2.4-0.4,3.4-1.3l0.8,1.4c-1.2,1.1-2.9,1.7-4.7,1.7
		c-3.8,0-6.2-2.8-6.2-7.4c0-2.3,0.5-3.8,1.7-5.2c1.1-1.3,2.5-1.9,4.1-1.9c1.5,0,2.8,0.5,3.8,1.5c1.2,1.2,1.6,2.5,1.6,5.8v0.3H65.2z
		 M70.9,76.2c-0.5-0.8-1.4-1.2-2.5-1.2c-2,0-3.1,1.4-3.2,4.3h6.3C71.5,77.8,71.3,76.9,70.9,76.2z"/>
	<path d="M83.9,75.7c-0.1-0.1-0.4-0.1-0.6-0.1c-0.8,0-1.7,0.4-2.3,1c-0.6,0.6-0.8,1.1-0.8,2.2v8.7H78V76.8c0-1.8-0.4-2.8-0.5-3
		l2.2-0.6c0.1,0.2,0.5,1.2,0.4,2.3c1-1.4,2.5-2.3,3.9-2.3c0.3,0,0.7,0.1,0.8,0.1L83.9,75.7z"/>
	<path d="M87.1,87.5V70.4c0-1.6-0.3-2.6-0.4-2.8l2.2-0.4c0.1,0.2,0.4,1.4,0.4,3.3v17.1H87.1z M95.7,87.5l-6.4-7.9l5.3-6h2.7l-5.5,6
		l6.7,7.9H95.7z"/>
	<path d="M102.5,80.9v0.3c0,1.3,0.2,2.3,0.6,3c0.8,1.2,2.1,1.7,3.5,1.7c1.3,0,2.4-0.4,3.4-1.3l0.8,1.4c-1.2,1.1-2.9,1.7-4.7,1.7
		c-3.8,0-6.2-2.8-6.2-7.4c0-2.3,0.5-3.8,1.7-5.2c1.1-1.3,2.5-1.9,4.1-1.9c1.5,0,2.8,0.5,3.8,1.5c1.2,1.2,1.6,2.5,1.6,5.8v0.3H102.5z
		 M108.2,76.2c-0.5-0.8-1.4-1.2-2.5-1.2c-2,0-3.1,1.4-3.2,4.3h6.3C108.8,77.8,108.6,76.9,108.2,76.2z"/>
	<path d="M120.4,75.3h-2.9v8.9c0,1.5,0.4,2.1,1.8,2.1c0.6,0,1-0.1,1.4-0.3l0.3,1.4c-0.7,0.4-1.5,0.6-2.5,0.6c-0.7,0-1.3-0.1-1.8-0.4
		c-1-0.5-1.3-1.4-1.3-2.8v-9.5h-1.8v-1.6h1.8c0-1.2,0.2-3.1,0.2-3.5l2.3-0.5c-0.1,0.4-0.3,2.4-0.3,4h3.5L120.4,75.3z"/>
</g>
</svg>
