<svg width="140" height="49" viewBox="0 0 140 49" fill="none" xmlns="http://www.w3.org/2000/svg">
<path d="M29.7529 0.218262H2.92759C1.60959 0.218262 0.52417 1.35172 0.52417 2.72806V19.8919C2.61747 18.1917 5.25348 15.9248 9.98279 17.1392C14.0919 18.1917 14.9447 21.5111 21.4572 25.2353C25.4112 27.5022 29.1326 25.7211 32.1563 23.9399V2.72806C32.1563 1.35172 31.0709 0.218262 29.7529 0.218262Z" fill="#156630"/>
<path d="M23.5505 32.8463C22.2325 32.6843 21.1471 32.1986 20.1392 31.4699C17.8908 30.0126 15.72 27.6647 11.0682 25.1549C7.42431 23.2928 3.78042 24.7501 0.52417 26.6932V45.881C0.52417 47.2574 1.60959 48.3908 2.92759 48.3908H29.6753C30.9933 48.3908 32.0788 47.2574 32.0788 45.881V30.1745C29.2877 31.8747 26.5741 33.332 23.5505 32.8463Z" fill="#175092"/>
<path d="M21.4572 25.1552C15.0222 21.431 14.0919 18.1116 9.98279 17.0591C5.25348 15.8446 2.61747 18.1925 0.52417 19.8118V23.2931V26.6125C3.78042 24.6694 7.42431 23.1312 11.0682 25.0742C15.72 27.584 17.8908 29.9319 20.1392 31.3892C21.1471 32.0369 22.2325 32.5227 23.5505 32.7656C26.5741 33.2513 29.2877 31.875 32.1563 30.1748V27.0983V23.7789C29.1326 25.7219 25.4112 27.5031 21.4572 25.1552Z" fill="white"/>
<path d="M40.6846 39.7278V23.8594H42.5453V39.7278H40.6846ZM44.6386 31.3078L50.6859 39.7278H48.36L42.5453 31.3078L48.36 23.8594H50.6859L44.6386 31.3078Z" fill="#222222"/>
<path d="M60.6871 40.1324C59.9118 39.8895 59.3691 39.2418 59.2141 38.4322C58.1287 39.5657 57.2758 39.9705 56.0354 39.9705C53.3218 39.9705 52.469 38.2703 52.469 36.651C52.469 34.0603 54.6398 32.522 58.2837 32.522C58.5163 32.522 58.6714 32.522 59.059 32.522V31.7124C59.059 30.6599 58.9815 30.2551 58.6714 29.9313C58.2837 29.5265 57.8961 29.2836 57.1983 29.2836C55.9578 29.2836 54.4072 30.0122 53.7095 30.6599L52.8566 29.4455C54.3297 28.393 55.8803 27.9072 57.5084 27.9072C59.059 27.9072 60.0669 28.5549 60.5321 29.6884C60.7647 30.3361 60.7647 31.2266 60.7647 32.1982L60.6871 36.0034C60.6096 37.8655 60.7647 38.3512 61.54 38.837L60.6871 40.1324ZM58.2062 33.8174C55.4151 33.8174 54.4072 34.7889 54.4072 36.5701C54.4072 37.9464 55.0275 38.6751 56.3455 38.6751C57.5084 38.6751 58.5163 37.9464 59.059 36.8939L59.1365 33.8984C58.8264 33.8174 58.4388 33.8174 58.2062 33.8174Z" fill="#222222"/>
<path d="M69.4481 29.9312C69.3706 29.8502 69.138 29.8502 68.9829 29.8502C68.2852 29.8502 67.6649 30.174 67.1222 30.6598C66.5795 31.2265 66.502 31.5504 66.502 32.5219V39.7275H64.7963V30.8217C64.7963 29.2835 64.4862 28.5548 64.4087 28.3929L66.1143 27.9071C66.1919 28.0691 66.502 28.9596 66.502 29.7692C67.2773 28.5548 68.4402 27.8262 69.6032 27.8262C69.8358 27.8262 70.1459 27.9071 70.2234 27.9071L69.4481 29.9312Z" fill="#222222"/>
<path d="M77.2787 29.5263H74.9528V36.9748C74.9528 38.2701 75.2629 38.6749 76.3483 38.6749C76.8135 38.6749 77.1236 38.594 77.4337 38.4321L77.6663 39.5655C77.1236 39.8894 76.5034 40.0513 75.7281 40.0513C75.1854 40.0513 74.7202 39.9703 74.255 39.7274C73.4797 39.3226 73.1696 38.594 73.1696 37.4605V29.5263H71.6965V28.15H73.1696C73.1696 27.1784 73.3247 25.6402 73.3247 25.2354L75.1078 24.8306C75.0303 25.2354 74.8753 26.7736 74.8753 28.15H77.6663L77.2787 29.5263Z" fill="#222222"/>
<path d="M85.3415 39.8085H83.6359L79.6819 28.312L81.4651 27.9072L84.0235 35.8414C84.2561 36.6511 84.4887 37.6226 84.5663 37.7845H84.6438C84.7213 37.6226 84.8764 36.732 85.1865 35.8414L87.745 28.2311H89.6057L85.3415 39.8085Z" fill="#222222"/>
<path d="M93.0945 34.222V34.4649C93.0945 35.5174 93.2495 36.408 93.6372 36.9747C94.2574 37.9462 95.2653 38.3511 96.3507 38.3511C97.4361 38.3511 98.289 38.0272 99.0643 37.2986L99.762 38.432C98.7542 39.3226 97.4361 39.8893 96.0406 39.8893C93.017 39.8893 91.1562 37.5414 91.1562 33.7363C91.1562 31.7932 91.5439 30.5788 92.4743 29.3643C93.3271 28.3118 94.4125 27.7451 95.808 27.7451C96.971 27.7451 98.0564 28.1499 98.8317 28.9595C99.762 30.012 100.072 31.0645 100.072 33.8172V34.0601H93.0945V34.222ZM97.5912 30.3359C97.2036 29.6882 96.4283 29.2834 95.5754 29.2834C94.0248 29.2834 93.0945 30.4978 93.017 32.8457H98.0564C98.1339 31.6313 97.9789 30.9026 97.5912 30.3359Z" fill="#222222"/>
<path d="M107.903 29.9312C107.825 29.8502 107.593 29.8502 107.438 29.8502C106.74 29.8502 106.12 30.174 105.577 30.6598C105.034 31.2265 104.957 31.5504 104.957 32.5219V39.7275H103.251V30.8217C103.251 29.2835 102.941 28.5548 102.863 28.3929L104.569 27.9071C104.646 28.0691 104.957 28.9596 104.957 29.7692C105.732 28.5548 106.895 27.8262 108.058 27.8262C108.29 27.8262 108.6 27.9071 108.678 27.9071L107.903 29.9312Z" fill="#222222"/>
<path d="M110.926 39.7276V25.5594C110.926 24.1831 110.694 23.3735 110.616 23.2115L112.322 22.8877C112.399 23.0496 112.632 24.0212 112.632 25.6404V39.8086H110.926V39.7276ZM117.826 39.7276L112.787 33.2507L116.974 28.2311H119.144L114.803 33.2507L120.152 39.7276H117.826Z" fill="#222222"/>
<path d="M123.176 34.222V34.4649C123.176 35.5174 123.331 36.408 123.719 36.9747C124.339 37.9462 125.347 38.3511 126.432 38.3511C127.518 38.3511 128.371 38.0272 129.146 37.2986L129.844 38.432C128.836 39.3226 127.518 39.8893 126.122 39.8893C123.099 39.8893 121.238 37.5414 121.238 33.7363C121.238 31.7932 121.625 30.5788 122.556 29.3643C123.409 28.3118 124.494 27.7451 125.89 27.7451C127.053 27.7451 128.138 28.1499 128.913 28.9595C129.844 30.012 130.154 31.0645 130.154 33.8172V34.0601H123.176V34.222ZM127.75 30.3359C127.363 29.6882 126.587 29.2834 125.735 29.2834C124.184 29.2834 123.254 30.4978 123.176 32.8457H128.215C128.215 31.6313 128.06 30.9026 127.75 30.3359Z" fill="#222222"/>
<path d="M137.519 29.5263H135.193V36.9748C135.193 38.2701 135.503 38.6749 136.589 38.6749C137.054 38.6749 137.364 38.594 137.674 38.4321L137.907 39.5655C137.364 39.8894 136.744 40.0513 135.969 40.0513C135.426 40.0513 134.961 39.9703 134.495 39.7274C133.72 39.3226 133.41 38.594 133.41 37.4605V29.5263H131.937V28.15H133.41C133.41 27.1784 133.565 25.6402 133.565 25.2354L135.348 24.8306C135.271 25.2354 135.116 26.7736 135.116 28.15H137.907L137.519 29.5263Z" fill="#222222"/>
</svg>
