<svg width="25" height="25" viewBox="0 0 25 25" fill="none" xmlns="http://www.w3.org/2000/svg">
<path d="M12.9844 2.07715C7.46438 2.07715 2.98438 6.55715 2.98438 12.0771C2.98438 17.5971 7.46438 22.0771 12.9844 22.0771C18.5044 22.0771 22.9844 17.5971 22.9844 12.0771C22.9844 6.55715 18.5044 2.07715 12.9844 2.07715ZM12.9844 20.0771C8.57438 20.0771 4.98438 16.4871 4.98438 12.0771C4.98438 7.66715 8.57438 4.07715 12.9844 4.07715C17.3944 4.07715 20.9844 7.66715 20.9844 12.0771C20.9844 16.4871 17.3944 20.0771 12.9844 20.0771ZM17.5744 7.65715L10.9844 14.2471L8.39437 11.6671L6.98438 13.0771L10.9844 17.0771L18.9844 9.07715L17.5744 7.65715Z" fill="#222222"/>
</svg>
