<svg width="25" height="24" viewBox="0 0 25 24" fill="none" xmlns="http://www.w3.org/2000/svg">
<path d="M18.9844 8H17.9844V6C17.9844 3.24 15.7444 1 12.9844 1C10.2244 1 7.98438 3.24 7.98438 6V8H6.98438C5.88437 8 4.98438 8.9 4.98438 10V20C4.98438 21.1 5.88437 22 6.98438 22H18.9844C20.0844 22 20.9844 21.1 20.9844 20V10C20.9844 8.9 20.0844 8 18.9844 8ZM9.98438 6C9.98438 4.34 11.3244 3 12.9844 3C14.6444 3 15.9844 4.34 15.9844 6V8H9.98438V6ZM18.9844 20H6.98438V10H18.9844V20ZM12.9844 17C14.0844 17 14.9844 16.1 14.9844 15C14.9844 13.9 14.0844 13 12.9844 13C11.8844 13 10.9844 13.9 10.9844 15C10.9844 16.1 11.8844 17 12.9844 17Z" fill="#222222"/>
</svg>
