<svg width="25" height="25" viewBox="0 0 25 25" fill="none" xmlns="http://www.w3.org/2000/svg">
<path d="M12.9844 2.07715C7.48438 2.07715 2.98438 6.57715 2.98438 12.0771C2.98438 17.5771 7.48438 22.0771 12.9844 22.0771C18.4844 22.0771 22.9844 17.5771 22.9844 12.0771C22.9844 6.57715 18.4844 2.07715 12.9844 2.07715ZM13.9844 4.14715C17.5944 4.59715 20.4644 7.47715 20.9144 11.0771H13.9844V4.14715ZM4.98438 12.0771C4.98438 8.01715 8.05437 4.63715 11.9844 4.14715V20.0171C8.05437 19.5171 4.98438 16.1371 4.98438 12.0771ZM13.9844 20.0071V13.0771H20.9144C20.4644 16.6871 17.5944 19.5571 13.9844 20.0071Z" fill="#222222"/>
</svg>
