<svg width="25" height="24" viewBox="0 0 25 24" fill="none" xmlns="http://www.w3.org/2000/svg">
<path d="M15.9844 10C15.9844 9.45 16.4344 9 16.9844 9C17.5344 9 17.9844 9.45 17.9844 10C17.9844 10.55 17.5344 11 16.9844 11C16.4344 11 15.9844 10.55 15.9844 10ZM8.98438 9H13.9844V7H8.98438V9ZM22.9844 7.5V14.47L20.1644 15.41L18.4844 21H12.9844V19H10.9844V21H5.48438C5.48438 21 2.98438 12.54 2.98438 9.5C2.98438 6.46 5.44438 4 8.48438 4H13.4844C14.3944 2.79 15.8444 2 17.4844 2C18.3144 2 18.9844 2.67 18.9844 3.5C18.9844 3.71 18.9444 3.9 18.8644 4.08C18.7244 4.42 18.6044 4.81 18.5444 5.23L20.8144 7.5H22.9844ZM20.9844 9.5H19.9844L16.4844 6C16.4844 5.35 16.5744 4.71 16.7444 4.09C15.7744 4.34 14.9844 5.06 14.6544 6H8.48438C6.55438 6 4.98438 7.57 4.98438 9.5C4.98438 11.38 6.20438 16.15 6.99438 19H8.98438V17H14.9844V19H16.9944L18.5444 13.85L20.9844 13.03V9.5Z" fill="#222222"/>
</svg>
