<svg width="25" height="25" viewBox="0 0 25 25" fill="none" xmlns="http://www.w3.org/2000/svg">
<path d="M17.2244 7.83715C16.0544 6.66715 14.5244 6.07715 12.9844 6.07715V12.0771L8.74438 16.3171C11.0844 18.6571 14.8844 18.6571 17.2344 16.3171C19.5744 13.9771 19.5744 10.1771 17.2244 7.83715ZM12.9844 2.07715C7.46438 2.07715 2.98438 6.55715 2.98438 12.0771C2.98438 17.5971 7.46438 22.0771 12.9844 22.0771C18.5044 22.0771 22.9844 17.5971 22.9844 12.0771C22.9844 6.55715 18.5044 2.07715 12.9844 2.07715ZM12.9844 20.0771C8.56437 20.0771 4.98438 16.4971 4.98438 12.0771C4.98438 7.65715 8.56437 4.07715 12.9844 4.07715C17.4044 4.07715 20.9844 7.65715 20.9844 12.0771C20.9844 16.4971 17.4044 20.0771 12.9844 20.0771Z" fill="#222222"/>
</svg>
