<svg width="125" height="91" viewBox="0 0 125 91" fill="none" xmlns="http://www.w3.org/2000/svg">
<path d="M77.3344 2.09961H42.8344C41.1344 2.09961 39.7344 3.49961 39.7344 5.19961V26.3996C42.4344 24.2996 45.8344 21.4996 51.9344 22.9996C57.2344 24.2996 58.3344 28.3996 66.7344 32.9996C71.8344 35.7996 76.6344 33.5996 80.5344 31.3996V5.29961C80.5344 3.49961 79.1344 2.09961 77.3344 2.09961Z" fill="#1A833B"/>
<path d="M69.4344 42.4004C67.7344 42.2004 66.3344 41.6004 65.0344 40.7004C62.1344 38.9004 59.3344 36.0004 53.3344 32.9004C48.6344 30.6004 43.9344 32.4004 39.7344 34.8004V58.5004C39.7344 60.2004 41.1344 61.6004 42.8344 61.6004H77.3344C79.0344 61.6004 80.4344 60.2004 80.4344 58.5004V39.2004C76.8344 41.3004 73.3344 43.0004 69.4344 42.4004Z" fill="#1A589F"/>
<path d="M66.7344 32.9999C58.4344 28.3999 57.2344 24.2999 51.9344 22.9999C45.8344 21.4999 42.4344 24.3999 39.7344 26.3999V30.6999V34.7999C43.9344 32.3999 48.6344 30.4999 53.3344 32.8999C59.3344 35.9999 62.1344 38.8999 65.0344 40.6999C66.3344 41.4999 67.7344 42.0999 69.4344 42.3999C73.3344 42.9999 76.8344 41.2999 80.5344 39.1999V35.3999V31.2999C76.6344 33.5999 71.8344 35.7999 66.7344 32.9999Z" fill="white"/>
<path d="M2.83594 87.5004V68.4004H5.23594V87.5004H2.83594ZM7.93594 77.4004L15.5359 87.5004H12.6359L5.33594 77.4004L12.7359 68.4004H15.6359L7.93594 77.4004Z" fill="#222222"/>
<path d="M27.2359 88C26.3359 87.7 25.6359 86.9 25.3359 86C24.0359 87.3 22.9359 87.9 21.3359 87.9C17.9359 87.9 16.8359 85.8 16.8359 83.9C16.8359 80.8 19.5359 78.9 24.2359 78.9C24.5359 78.9 24.7359 78.9 25.2359 78.9V77.9C25.2359 76.7 25.1359 76.2 24.8359 75.7C24.4359 75.2 23.8359 74.9 22.9359 74.9C21.3359 74.9 19.4359 75.7 18.5359 76.5L17.4359 74.9C19.2359 73.7 21.2359 73 23.2359 73C25.1359 73 26.5359 73.8 27.0359 75.2C27.3359 76 27.3359 77 27.3359 78.3L27.2359 83.1C27.1359 85.4 27.3359 85.9 28.3359 86.5L27.2359 88ZM24.0359 80.4C20.5359 80.4 19.2359 81.6 19.2359 83.7C19.2359 85.3 20.0359 86.2 21.6359 86.2C23.0359 86.2 24.3359 85.3 25.0359 84L25.1359 80.4C24.8359 80.4 24.3359 80.4 24.0359 80.4Z" fill="#222222"/>
<path d="M38.4352 75.7002C38.3352 75.6002 38.0352 75.6002 37.8352 75.6002C37.0352 75.6002 36.1352 76.0002 35.5352 76.6002C34.9352 77.2002 34.7352 77.7002 34.7352 78.8002V87.5002H32.5352V76.8002C32.5352 75.0002 32.1352 74.0002 32.0352 73.8002L34.2352 73.2002C34.3352 73.4002 34.7352 74.4002 34.6352 75.5002C35.6352 74.1002 37.1352 73.2002 38.5352 73.2002C38.8352 73.2002 39.2352 73.3002 39.3352 73.3002L38.4352 75.7002Z" fill="#222222"/>
<path d="M47.0344 75.3002H44.1344V84.2002C44.1344 85.7002 44.5344 86.3002 45.9344 86.3002C46.5344 86.3002 46.9344 86.2002 47.3344 86.0002L47.6344 87.4002C46.9344 87.8002 46.1344 88.0002 45.1344 88.0002C44.4344 88.0002 43.8344 87.9002 43.3344 87.6002C42.3344 87.1002 42.0344 86.2002 42.0344 84.8002V75.3002H40.2344V73.7002H42.0344C42.0344 72.5002 42.2344 70.6002 42.2344 70.2002L44.5344 69.7002C44.4344 70.1002 44.2344 72.1002 44.2344 73.7002H47.7344L47.0344 75.3002Z" fill="#222222"/>
<path d="M55.7367 87.6002H53.6367L48.6367 73.7002L50.8367 73.2002L54.0367 82.8002C54.3367 83.8002 54.6367 84.9002 54.7367 85.2002H54.8367C54.9367 85.0002 55.1367 84.0002 55.5367 82.9002L58.7367 73.7002H61.0367L55.7367 87.6002Z" fill="#222222"/>
<path d="M65.4359 80.9002V81.2002C65.4359 82.5002 65.6359 83.5002 66.0359 84.2002C66.8359 85.4002 68.1359 85.9002 69.5359 85.9002C70.8359 85.9002 71.9359 85.5002 72.9359 84.6002L73.7359 86.0002C72.5359 87.1002 70.8359 87.7002 69.0359 87.7002C65.2359 87.7002 62.8359 84.9002 62.8359 80.3002C62.8359 78.0002 63.3359 76.5002 64.5359 75.1002C65.6359 73.8002 67.0359 73.2002 68.6359 73.2002C70.1359 73.2002 71.4359 73.7002 72.4359 74.7002C73.6359 75.9002 74.0359 77.2002 74.0359 80.5002V80.8002H65.4359V80.9002ZM71.1359 76.2002C70.6359 75.4002 69.7359 75.0002 68.6359 75.0002C66.6359 75.0002 65.5359 76.4002 65.4359 79.3002H71.7359C71.7359 77.8002 71.5359 76.9002 71.1359 76.2002Z" fill="#222222"/>
<path d="M84.1344 75.7002C84.0344 75.6002 83.7344 75.6002 83.5344 75.6002C82.7344 75.6002 81.8344 76.0002 81.2344 76.6002C80.6344 77.2002 80.4344 77.7002 80.4344 78.8002V87.5002H78.2344V76.8002C78.2344 75.0002 77.8344 74.0002 77.7344 73.8002L79.9344 73.2002C80.0344 73.4002 80.4344 74.4002 80.3344 75.5002C81.3344 74.1002 82.8344 73.2002 84.2344 73.2002C84.5344 73.2002 84.9344 73.3002 85.0344 73.3002L84.1344 75.7002Z" fill="#222222"/>
<path d="M87.3375 87.5002V70.4002C87.3375 68.8002 87.0375 67.8002 86.9375 67.6002L89.1375 67.2002C89.2375 67.4002 89.5375 68.6002 89.5375 70.5002V87.6002H87.3375V87.5002ZM95.9375 87.5002L89.5375 79.6002L94.8375 73.6002H97.5375L92.0375 79.6002L98.7375 87.5002H95.9375Z" fill="#222222"/>
<path d="M102.737 80.9002V81.2002C102.737 82.5002 102.937 83.5002 103.337 84.2002C104.137 85.4002 105.437 85.9002 106.837 85.9002C108.137 85.9002 109.237 85.5002 110.237 84.6002L111.037 86.0002C109.837 87.1002 108.137 87.7002 106.337 87.7002C102.537 87.7002 100.137 84.9002 100.137 80.3002C100.137 78.0002 100.637 76.5002 101.837 75.1002C102.937 73.8002 104.337 73.2002 105.937 73.2002C107.437 73.2002 108.737 73.7002 109.737 74.7002C110.937 75.9002 111.337 77.2002 111.337 80.5002V80.8002H102.737V80.9002ZM108.437 76.2002C107.937 75.4002 107.037 75.0002 105.937 75.0002C103.937 75.0002 102.837 76.4002 102.737 79.3002H109.037C109.037 77.8002 108.837 76.9002 108.437 76.2002Z" fill="#222222"/>
<path d="M120.636 75.3002H117.736V84.2002C117.736 85.7002 118.136 86.3002 119.536 86.3002C120.136 86.3002 120.536 86.2002 120.936 86.0002L121.236 87.4002C120.536 87.8002 119.736 88.0002 118.736 88.0002C118.036 88.0002 117.436 87.9002 116.936 87.6002C115.936 87.1002 115.636 86.2002 115.636 84.8002V75.3002H113.836V73.7002H115.636C115.636 72.5002 115.836 70.6002 115.836 70.2002L118.136 69.7002C118.036 70.1002 117.836 72.1002 117.836 73.7002H121.336L120.636 75.3002Z" fill="#222222"/>
</svg>
