<svg width="184" height="64" viewBox="0 0 184 64" fill="none" xmlns="http://www.w3.org/2000/svg">
<path d="M40.9383 2.09961H6.33828C4.63828 2.09961 3.23828 3.49961 3.23828 5.19961V26.3996C5.93828 24.2996 9.33828 21.4996 15.4383 22.9996C20.7383 24.2996 21.8383 28.3996 30.2383 32.9996C35.3383 35.7996 40.1383 33.5996 44.0383 31.3996V5.19961C44.0383 3.49961 42.6383 2.09961 40.9383 2.09961Z" fill="#1A833B"/>
<path d="M32.9383 42.4004C31.2383 42.2004 29.8383 41.6004 28.5383 40.7004C25.6383 38.9004 22.8383 36.0004 16.8383 32.9004C12.1383 30.6004 7.43828 32.4004 3.23828 34.8004V58.5004C3.23828 60.2004 4.63828 61.6004 6.33828 61.6004H40.8383C42.5383 61.6004 43.9383 60.2004 43.9383 58.5004V39.1004C40.3383 41.2004 36.8383 43.0004 32.9383 42.4004Z" fill="#1A589F"/>
<path d="M30.2383 32.9003C21.9383 28.3003 20.7383 24.2003 15.4383 22.9003C9.33828 21.4003 5.93828 24.3003 3.23828 26.3003V30.6003V34.7003C7.43828 32.3003 12.1383 30.4003 16.8383 32.8003C22.8383 35.9003 25.6383 38.8003 28.5383 40.6003C29.8383 41.4003 31.2383 42.0003 32.9383 42.3003C36.8383 42.9003 40.3383 41.2003 44.0383 39.1003V35.3003V31.2003C40.1383 33.6003 35.3383 35.8003 30.2383 32.9003Z" fill="white"/>
<path d="M55.0391 50.8998V31.2998H57.4391V50.8998H55.0391ZM60.1391 40.4998L67.9391 50.8998H64.9391L57.4391 40.4998L64.9391 31.2998H67.9391L60.1391 40.4998Z" fill="black"/>
<path d="M80.8383 51.3998C79.8383 51.0998 79.1383 50.2998 78.9383 49.2998C77.5383 50.6998 76.4383 51.1998 74.8383 51.1998C71.3383 51.1998 70.2383 49.0998 70.2383 47.0998C70.2383 43.8998 73.0383 41.9998 77.7383 41.9998C78.0383 41.9998 78.2383 41.9998 78.7383 41.9998V40.9998C78.7383 39.6998 78.6383 39.1998 78.2383 38.7998C77.7383 38.2998 77.2383 37.9998 76.3383 37.9998C74.7383 37.9998 72.7383 38.8998 71.8383 39.6998L70.7383 38.1998C72.6383 36.8998 74.6383 36.2998 76.7383 36.2998C78.7383 36.2998 80.0383 37.0998 80.6383 38.4998C80.9383 39.2998 80.9383 40.3998 80.9383 41.5998L80.8383 46.2998C80.7383 48.5998 80.9383 49.1998 81.9383 49.7998L80.8383 51.3998ZM77.6383 43.5998C74.0383 43.5998 72.7383 44.7998 72.7383 46.9998C72.7383 48.6998 73.5383 49.5998 75.2383 49.5998C76.7383 49.5998 78.0383 48.6998 78.7383 47.3998L78.8383 43.6998C78.4383 43.5998 77.9383 43.5998 77.6383 43.5998Z" fill="black"/>
<path d="M92.1406 38.7992C92.0406 38.6992 91.7406 38.6992 91.5406 38.6992C90.6406 38.6992 89.8406 39.0992 89.1406 39.6992C88.4406 40.3992 88.3406 40.7992 88.3406 41.9992V50.8992H86.1406V39.8992C86.1406 37.9992 85.7406 37.0992 85.6406 36.8992L87.8406 36.2992C87.9406 36.4992 88.3406 37.5992 88.3406 38.5992C89.3406 37.0992 90.8406 36.1992 92.3406 36.1992C92.6406 36.1992 93.0406 36.2992 93.1406 36.2992L92.1406 38.7992Z" fill="black"/>
<path d="M102.239 38.3H99.2391V47.5C99.2391 49.1 99.6391 49.6 101.039 49.6C101.639 49.6 102.039 49.5 102.439 49.3L102.739 50.7C102.039 51.1 101.239 51.3 100.239 51.3C99.5391 51.3 98.9391 51.2 98.3391 50.9C97.3391 50.4 96.9391 49.5 96.9391 48.1V38.3H95.0391V36.6H96.9391C96.9391 35.4 97.1391 33.5 97.1391 33L99.4391 32.5C99.3391 33 99.1391 34.9 99.1391 36.6H102.739L102.239 38.3Z" fill="black"/>
<path d="M112.64 50.9998H110.44L105.34 36.7998L107.64 36.2998L110.94 46.0998C111.24 47.0998 111.54 48.2998 111.64 48.4998H111.74C111.84 48.2998 112.04 47.1998 112.44 46.0998L115.74 36.6998H118.14L112.64 50.9998Z" fill="black"/>
<path d="M122.641 44.0996V44.3996C122.641 45.6996 122.841 46.7996 123.341 47.4996C124.141 48.6996 125.441 49.1996 126.841 49.1996C128.241 49.1996 129.341 48.7996 130.341 47.8996L131.241 49.2996C129.941 50.3996 128.241 51.0996 126.441 51.0996C122.541 51.0996 120.141 48.1996 120.141 43.4996C120.141 41.0996 120.641 39.5996 121.841 38.0996C122.941 36.7996 124.341 36.0996 126.141 36.0996C127.641 36.0996 129.041 36.5996 130.041 37.5996C131.241 38.8996 131.641 40.1996 131.641 43.5996V43.8996H122.641V44.0996ZM128.441 39.2996C127.941 38.4996 126.941 37.9996 125.841 37.9996C123.841 37.9996 122.641 39.4996 122.541 42.3996H129.041C129.141 40.8996 128.941 39.9996 128.441 39.2996Z" fill="black"/>
<path d="M141.738 38.7992C141.638 38.6992 141.338 38.6992 141.138 38.6992C140.238 38.6992 139.438 39.0992 138.738 39.6992C138.038 40.3992 137.938 40.7992 137.938 41.9992V50.8992H135.738V39.8992C135.738 37.9992 135.338 37.0992 135.238 36.8992L137.438 36.2992C137.538 36.4992 137.938 37.5992 137.938 38.5992C138.938 37.0992 140.438 36.1992 141.938 36.1992C142.238 36.1992 142.638 36.2992 142.738 36.2992L141.738 38.7992Z" fill="black"/>
<path d="M145.638 50.8996V33.3996C145.638 31.6996 145.338 30.6996 145.238 30.4996L147.438 30.0996C147.538 30.2996 147.838 31.4996 147.838 33.4996V50.9996H145.638V50.8996ZM154.538 50.8996L148.038 42.8996L153.438 36.6996H156.238L150.638 42.8996L157.538 50.8996H154.538Z" fill="black"/>
<path d="M161.438 44.0996V44.3996C161.438 45.6996 161.637 46.7996 162.137 47.4996C162.937 48.6996 164.237 49.1996 165.637 49.1996C167.037 49.1996 168.137 48.7996 169.137 47.8996L170.038 49.2996C168.738 50.3996 167.038 51.0996 165.238 51.0996C161.338 51.0996 158.938 48.1996 158.938 43.4996C158.938 41.0996 159.437 39.5996 160.637 38.0996C161.737 36.7996 163.137 36.0996 164.938 36.0996C166.438 36.0996 167.838 36.5996 168.838 37.5996C170.038 38.8996 170.438 40.1996 170.438 43.5996V43.8996H161.438V44.0996ZM167.338 39.2996C166.838 38.4996 165.838 37.9996 164.738 37.9996C162.738 37.9996 161.537 39.4996 161.438 42.3996H167.938C167.938 40.8996 167.738 39.9996 167.338 39.2996Z" fill="black"/>
<path d="M179.938 38.3H176.938V47.5C176.938 49.1 177.338 49.6 178.738 49.6C179.338 49.6 179.738 49.5 180.138 49.3L180.438 50.7C179.738 51.1 178.938 51.3 177.938 51.3C177.238 51.3 176.638 51.2 176.038 50.9C175.038 50.4 174.638 49.5 174.638 48.1V38.3H172.738V36.6H174.638C174.638 35.4 174.838 33.5 174.838 33L177.138 32.5C177.038 33 176.838 34.9 176.838 36.6H180.438L179.938 38.3Z" fill="black"/>
</svg>
