<svg width="1242" height="489" viewBox="0 0 1242 489" fill="none" xmlns="http://www.w3.org/2000/svg">
<rect width="1242" height="489" rx="8" fill="white"/>
<g filter="url(#filter0_d_590_10597)">
<path d="M1130.03 192.424H1011.62C1009.62 192.424 1008 194.041 1008 196.037V402.721C1008 404.716 1009.62 406.334 1011.62 406.334H1130.03C1132.02 406.334 1133.64 404.716 1133.64 402.721V196.037C1133.64 194.041 1132.02 192.424 1130.03 192.424Z" fill="white"/>
<path d="M1130.03 255.338H1011.62C1009.62 255.338 1008 256.956 1008 258.951V324.035C1008 326.031 1009.62 327.649 1011.62 327.649H1130.03C1132.02 327.649 1133.64 326.031 1133.64 324.035V258.951C1133.64 256.956 1132.02 255.338 1130.03 255.338Z" fill="#05502A"/>
<path d="M987.562 264.734H766.14C763.971 262.555 762.751 261.344 760.572 259.164V134.003C760.572 130.933 763.061 128.434 766.14 128.434H987.562C990.632 128.434 993.13 130.923 993.13 134.003V259.164C993.13 262.235 990.641 264.734 987.562 264.734Z" fill="white" stroke="#F0EDED" stroke-width="0.5" stroke-miterlimit="10"/>
<path d="M657.423 247.588H791.413C793.233 247.588 794.715 249.07 794.715 250.891V276.386C794.715 278.217 793.233 279.699 791.403 279.699H657.423C655.593 279.699 654.111 278.217 654.111 276.386V250.891C654.111 249.06 655.593 247.578 657.423 247.578V247.588Z" fill="#1A589F"/>
<path d="M657.423 293.135H791.413C793.233 293.135 794.715 294.617 794.715 296.438V321.933C794.715 323.764 793.233 325.246 791.403 325.246H657.423C655.593 325.246 654.111 323.764 654.111 321.933V296.438C654.111 294.607 655.593 293.125 657.423 293.125V293.135Z" fill="white" stroke="#F0EDED" stroke-width="0.5" stroke-miterlimit="10"/>
<path d="M840.248 215.847C840.248 218.84 837.818 221.271 834.826 221.271H784.588C781.024 221.271 778.129 218.384 778.129 214.81V204.184V152.874C778.129 149.881 780.559 147.449 783.552 147.449H834.826C837.818 147.449 840.248 149.881 840.248 152.874V215.847Z" fill="#E3E0E0"/>
<path d="M840.248 215.847C840.248 218.84 837.818 221.271 834.826 221.271H783.707C780.627 221.271 778.129 218.772 778.129 215.692V208.514V152.874C778.129 149.881 780.559 147.449 783.552 147.449H834.826C837.818 147.449 840.248 149.881 840.248 152.874V215.847Z" fill="#156630"/>
<path d="M1130.03 192.424H1011.62C1009.62 192.424 1008 194.041 1008 196.037V261.121C1008 263.117 1009.62 264.735 1011.62 264.735H1130.03C1132.02 264.735 1133.64 263.117 1133.64 261.121V196.037C1133.64 194.041 1132.02 192.424 1130.03 192.424Z" fill="#1A589F"/>
<path d="M853.658 165.359H902.802" stroke="#E9F4EC" stroke-width="4" stroke-miterlimit="10" stroke-linecap="round"/>
<path d="M853.658 176.576H919.341" stroke="#E9F4EC" stroke-width="4" stroke-miterlimit="10" stroke-linecap="round"/>
<path d="M853.658 197.141H955.422" stroke="#E9F4EC" stroke-width="4" stroke-miterlimit="10" stroke-linecap="round"/>
<path d="M853.658 206.877H955.422" stroke="#E9F4EC" stroke-width="4" stroke-miterlimit="10" stroke-linecap="round"/>
<path d="M853.658 216.611H906.162" stroke="#E9F4EC" stroke-width="4" stroke-miterlimit="10" stroke-linecap="round"/>
<path d="M853.658 153.639H877.45" stroke="#E9F4EC" stroke-width="4" stroke-miterlimit="10" stroke-linecap="round"/>
<path d="M1048.6 211.555H1083.08" stroke="#E9F4EC" stroke-width="4" stroke-miterlimit="10" stroke-linecap="round"/>
<path d="M1048.6 225.6H1120.01" stroke="#E9F4EC" stroke-width="4" stroke-miterlimit="10" stroke-linecap="round"/>
<path d="M1048.6 233.959H1120.01" stroke="#E9F4EC" stroke-width="4" stroke-miterlimit="10" stroke-linecap="round"/>
<path d="M1048.6 242.33H1085.44" stroke="#E9F4EC" stroke-width="4" stroke-miterlimit="10" stroke-linecap="round"/>
<path d="M1048.6 282.121H1083.08" stroke="#E9F4EC" stroke-width="4" stroke-miterlimit="10" stroke-linecap="round"/>
<path d="M1048.6 296.166H1120.01" stroke="#E9F4EC" stroke-width="4" stroke-miterlimit="10" stroke-linecap="round"/>
<path d="M1048.6 304.535H1120.01" stroke="#E9F4EC" stroke-width="4" stroke-miterlimit="10" stroke-linecap="round"/>
<path d="M1048.6 312.895H1085.44" stroke="#E9F4EC" stroke-width="4" stroke-miterlimit="10" stroke-linecap="round"/>
<path d="M667.359 263.648H738.475" stroke="#E9F4EC" stroke-width="4" stroke-miterlimit="10" stroke-linecap="round"/>
<path d="M667.359 309.186H738.475" stroke="#D0ECD6" stroke-width="4" stroke-miterlimit="10" stroke-linecap="round"/>
<path d="M773.539 263.648H782.922" stroke="#E9F4EC" stroke-width="4" stroke-miterlimit="10" stroke-linecap="round"/>
<path d="M773.539 309.186H782.922" stroke="#D0ECD6" stroke-width="4" stroke-miterlimit="10" stroke-linecap="round"/>
<path d="M908.739 283.75H989.771C991.591 283.75 993.073 285.232 993.073 287.053V375.308C993.073 377.139 991.591 378.621 989.761 378.621H908.73C906.9 378.621 905.418 377.139 905.418 375.308V287.063C905.418 285.232 906.9 283.75 908.73 283.75H908.739Z" fill="#4DB450"/>
<path d="M760.523 105.238L760.523 86.1708C760.523 84.203 762.11 82.6133 764.074 82.6133L893.132 82.6133C895.097 82.6133 896.684 84.203 896.684 86.1708L896.684 105.238C896.684 107.205 895.097 108.795 893.132 108.795L764.074 108.795C762.11 108.795 760.523 107.205 760.523 105.238Z" fill="white" stroke="#F0EDED" stroke-width="0.5" stroke-miterlimit="10"/>
<path d="M887.414 95.6992L771.1 95.6992" stroke="#1A833B" stroke-width="2" stroke-miterlimit="10" stroke-linecap="round"/>
<path d="M855.732 95.8642L855.732 95.5346C855.732 92.4564 853.241 89.9609 850.168 89.9609C847.095 89.9609 844.604 92.4564 844.604 95.5346L844.604 95.8642C844.604 98.9425 847.095 101.438 850.168 101.438C853.241 101.438 855.732 98.9425 855.732 95.8642Z" fill="#1A833B" stroke="#F0EDED" stroke-width="0.5" stroke-miterlimit="10"/>
<path d="M810.044 283.748H891.075C892.896 283.748 894.377 285.23 894.377 287.051V375.306C894.377 377.137 892.896 378.619 891.066 378.619H810.034C808.204 378.619 806.723 377.137 806.723 375.306V287.061C806.723 285.23 808.204 283.748 810.034 283.748H810.044Z" fill="#E9F4EC"/>
<path d="M822.855 311.422H850.095" stroke="#1A833B" stroke-width="4" stroke-miterlimit="10" stroke-linecap="round"/>
<path d="M822.855 322.639H859.256" stroke="#1A833B" stroke-width="4" stroke-miterlimit="10" stroke-linecap="round"/>
<path d="M822.855 343.203H879.262" stroke="#1A833B" stroke-width="4" stroke-miterlimit="10" stroke-linecap="round"/>
<path d="M822.855 352.939H879.262" stroke="#1A833B" stroke-width="4" stroke-miterlimit="10" stroke-linecap="round"/>
<path d="M822.855 362.664H851.954" stroke="#1A833B" stroke-width="4" stroke-miterlimit="10" stroke-linecap="round"/>
<path d="M822.855 299.691H836.044" stroke="#1A833B" stroke-width="4" stroke-miterlimit="10" stroke-linecap="round"/>
<path d="M1036.23 215.158H1022.15V229.243H1036.23V215.158Z" fill="white" stroke="#F0EDED" stroke-width="0.5" stroke-miterlimit="10"/>
<path d="M1033.72 219.875H1024.79V213.288C1024.79 210.818 1026.79 208.822 1029.26 208.822C1031.73 208.822 1033.72 210.818 1033.72 213.288V219.875Z" stroke="white" stroke-width="3" stroke-miterlimit="10"/>
<path d="M1036.13 293.445V285.599C1036.13 282.16 1033.6 279.312 1030.29 278.809V278.189C1030.29 277.617 1029.83 277.152 1029.26 277.152C1028.69 277.152 1028.22 277.617 1028.22 278.189V278.809C1024.92 279.312 1022.38 282.151 1022.38 285.599V293.445C1021.44 293.92 1020.8 294.879 1020.8 296.003H1037.71C1037.71 294.879 1037.07 293.92 1036.13 293.445Z" fill="white"/>
<path d="M1029.26 300.313C1031.1 300.313 1032.58 298.821 1032.58 296.99H1025.93C1025.93 298.831 1027.42 300.313 1029.25 300.313H1029.26Z" fill="white"/>
<path d="M720.768 223.677H670.637C661.525 223.677 654.068 216.218 654.068 207.103C654.068 197.949 661.486 190.52 670.637 190.52H720.768C729.919 190.52 737.336 197.939 737.336 207.093C737.336 216.247 729.919 223.667 720.768 223.667V223.677Z" fill="white" stroke="#F0EDED" stroke-width="0.5" stroke-miterlimit="10"/>
<g filter="url(#filter1_d_590_10597)">
<path d="M673.058 195.121H672.342C665.726 195.121 660.363 200.484 660.363 207.099C660.363 213.714 665.726 219.076 672.342 219.076H673.058C679.674 219.076 685.037 213.714 685.037 207.099C685.037 200.484 679.674 195.121 673.058 195.121Z" fill="#1A589F"/>
</g>
<path d="M1025.94 348.92H1073.99" stroke="#156630" stroke-width="4" stroke-miterlimit="10" stroke-linecap="round"/>
<path d="M1025.94 384.791H1073.99" stroke="#156630" stroke-width="4" stroke-miterlimit="10" stroke-linecap="round"/>
<path d="M1105.61 348.92H1120.16" stroke="#156630" stroke-width="4" stroke-miterlimit="10" stroke-linecap="round"/>
<path d="M1105.61 384.791H1120.16" stroke="#156630" stroke-width="4" stroke-miterlimit="10" stroke-linecap="round"/>
</g>
<defs>
<filter id="filter0_d_590_10597" x="609" y="61" width="563" height="401" filterUnits="userSpaceOnUse" color-interpolation-filters="sRGB">
<feFlood flood-opacity="0" result="BackgroundImageFix"/>
<feColorMatrix in="SourceAlpha" type="matrix" values="0 0 0 0 0 0 0 0 0 0 0 0 0 0 0 0 0 0 127 0" result="hardAlpha"/>
<feMorphology radius="12" operator="erode" in="SourceAlpha" result="effect1_dropShadow_590_10597"/>
<feOffset dy="17"/>
<feGaussianBlur stdDeviation="25"/>
<feColorMatrix type="matrix" values="0 0 0 0 0.177802 0 0 0 0 0.326416 0 0 0 0 0.224509 0 0 0 0.17 0"/>
<feBlend mode="normal" in2="BackgroundImageFix" result="effect1_dropShadow_590_10597"/>
<feBlend mode="normal" in="SourceGraphic" in2="effect1_dropShadow_590_10597" result="shape"/>
</filter>
<filter id="filter1_d_590_10597" x="645.363" y="180.121" width="44.6738" height="43.9551" filterUnits="userSpaceOnUse" color-interpolation-filters="sRGB">
<feFlood flood-opacity="0" result="BackgroundImageFix"/>
<feColorMatrix in="SourceAlpha" type="matrix" values="0 0 0 0 0 0 0 0 0 0 0 0 0 0 0 0 0 0 127 0" result="hardAlpha"/>
<feOffset dx="-5" dy="-5"/>
<feGaussianBlur stdDeviation="5"/>
<feColorMatrix type="matrix" values="0 0 0 0 0.941176 0 0 0 0 0.941176 0 0 0 0 1 0 0 0 0.5 0"/>
<feBlend mode="normal" in2="BackgroundImageFix" result="effect1_dropShadow_590_10597"/>
<feBlend mode="normal" in="SourceGraphic" in2="effect1_dropShadow_590_10597" result="shape"/>
</filter>
</defs>
</svg>
