<svg width="1242" height="489" viewBox="0 0 1242 489" fill="none" xmlns="http://www.w3.org/2000/svg">
<rect width="1242" height="489" rx="8" fill="#156630"/>
<g filter="url(#filter0_dd_590_10737)">
<path d="M1174.03 192.424H1055.62C1053.62 192.424 1052 194.041 1052 196.037V402.721C1052 404.716 1053.62 406.334 1055.62 406.334H1174.03C1176.02 406.334 1177.64 404.716 1177.64 402.721V196.037C1177.64 194.041 1176.02 192.424 1174.03 192.424Z" fill="white"/>
<path d="M1174.03 255.338H1055.62C1053.62 255.338 1052 256.956 1052 258.951V324.035C1052 326.031 1053.62 327.649 1055.62 327.649H1174.03C1176.02 327.649 1177.64 326.031 1177.64 324.035V258.951C1177.64 256.956 1176.02 255.338 1174.03 255.338Z" fill="#05502A"/>
<path d="M1031.56 264.734H810.14C807.971 262.555 806.751 261.344 804.572 259.164V134.003C804.572 130.933 807.061 128.434 810.14 128.434H1031.56C1034.63 128.434 1037.13 130.923 1037.13 134.003V259.164C1037.13 262.235 1034.64 264.734 1031.56 264.734Z" fill="white" stroke="#F0EDED" stroke-width="0.5" stroke-miterlimit="10"/>
<path d="M701.423 247.588H835.413C837.233 247.588 838.715 249.07 838.715 250.891V276.386C838.715 278.217 837.233 279.699 835.403 279.699H701.423C699.593 279.699 698.111 278.217 698.111 276.386V250.891C698.111 249.06 699.593 247.578 701.423 247.578V247.588Z" fill="#2472C4"/>
<path d="M701.423 293.135H835.413C837.233 293.135 838.715 294.617 838.715 296.438V321.933C838.715 323.764 837.233 325.246 835.403 325.246H701.423C699.593 325.246 698.111 323.764 698.111 321.933V296.438C698.111 294.607 699.593 293.125 701.423 293.125V293.135Z" fill="white" stroke="#F0EDED" stroke-width="0.5" stroke-miterlimit="10"/>
<path d="M884.248 215.847C884.248 218.84 881.818 221.271 878.826 221.271H828.588C825.024 221.271 822.129 218.384 822.129 214.81V204.184V152.874C822.129 149.881 824.559 147.449 827.552 147.449H878.826C881.818 147.449 884.248 149.881 884.248 152.874V215.847Z" fill="#E3E0E0"/>
<path d="M884.248 215.847C884.248 218.84 881.818 221.271 878.826 221.271H827.707C824.627 221.271 822.129 218.772 822.129 215.692V208.514V152.874C822.129 149.881 824.559 147.449 827.552 147.449H878.826C881.818 147.449 884.248 149.881 884.248 152.874V215.847Z" fill="#156630"/>
<path d="M1174.03 192.424H1055.62C1053.62 192.424 1052 194.041 1052 196.037V261.121C1052 263.117 1053.62 264.735 1055.62 264.735H1174.03C1176.02 264.735 1177.64 263.117 1177.64 261.121V196.037C1177.64 194.041 1176.02 192.424 1174.03 192.424Z" fill="#2472C4"/>
<path d="M897.658 165.359H946.802" stroke="#E9F4EC" stroke-width="4" stroke-miterlimit="10" stroke-linecap="round"/>
<path d="M897.658 176.576H963.341" stroke="#E9F4EC" stroke-width="4" stroke-miterlimit="10" stroke-linecap="round"/>
<path d="M897.658 197.141H999.422" stroke="#E9F4EC" stroke-width="4" stroke-miterlimit="10" stroke-linecap="round"/>
<path d="M897.658 206.877H999.422" stroke="#E9F4EC" stroke-width="4" stroke-miterlimit="10" stroke-linecap="round"/>
<path d="M897.658 216.611H950.162" stroke="#E9F4EC" stroke-width="4" stroke-miterlimit="10" stroke-linecap="round"/>
<path d="M897.658 153.639H921.45" stroke="#E9F4EC" stroke-width="4" stroke-miterlimit="10" stroke-linecap="round"/>
<path d="M1092.6 211.555H1127.08" stroke="#E9F4EC" stroke-width="4" stroke-miterlimit="10" stroke-linecap="round"/>
<path d="M1092.6 225.6H1164.01" stroke="#E9F4EC" stroke-width="4" stroke-miterlimit="10" stroke-linecap="round"/>
<path d="M1092.6 233.959H1164.01" stroke="#E9F4EC" stroke-width="4" stroke-miterlimit="10" stroke-linecap="round"/>
<path d="M1092.6 242.33H1129.44" stroke="#E9F4EC" stroke-width="4" stroke-miterlimit="10" stroke-linecap="round"/>
<path d="M1092.6 282.121H1127.08" stroke="#E9F4EC" stroke-width="4" stroke-miterlimit="10" stroke-linecap="round"/>
<path d="M1092.6 296.166H1164.01" stroke="#E9F4EC" stroke-width="4" stroke-miterlimit="10" stroke-linecap="round"/>
<path d="M1092.6 304.535H1164.01" stroke="#E9F4EC" stroke-width="4" stroke-miterlimit="10" stroke-linecap="round"/>
<path d="M1092.6 312.895H1129.44" stroke="#E9F4EC" stroke-width="4" stroke-miterlimit="10" stroke-linecap="round"/>
<path d="M711.359 263.648H782.475" stroke="#E9F4EC" stroke-width="4" stroke-miterlimit="10" stroke-linecap="round"/>
<path d="M711.359 309.186H782.475" stroke="#D0ECD6" stroke-width="4" stroke-miterlimit="10" stroke-linecap="round"/>
<path d="M817.539 263.648H826.922" stroke="#E9F4EC" stroke-width="4" stroke-miterlimit="10" stroke-linecap="round"/>
<path d="M817.539 309.186H826.922" stroke="#D0ECD6" stroke-width="4" stroke-miterlimit="10" stroke-linecap="round"/>
<path d="M952.739 283.75H1033.77C1035.59 283.75 1037.07 285.232 1037.07 287.053V375.308C1037.07 377.139 1035.59 378.621 1033.76 378.621H952.73C950.9 378.621 949.418 377.139 949.418 375.308V287.063C949.418 285.232 950.9 283.75 952.73 283.75H952.739Z" fill="#D0ECD6"/>
<path d="M804.523 105.238L804.523 86.1708C804.523 84.203 806.11 82.6133 808.074 82.6133L937.132 82.6133C939.097 82.6133 940.684 84.203 940.684 86.1708L940.684 105.238C940.684 107.205 939.097 108.795 937.132 108.795L808.074 108.795C806.11 108.795 804.523 107.205 804.523 105.238Z" fill="white" stroke="#F0EDED" stroke-width="0.5" stroke-miterlimit="10"/>
<path d="M931.414 95.6992L815.1 95.6992" stroke="#1A833B" stroke-width="2" stroke-miterlimit="10" stroke-linecap="round"/>
<path d="M899.732 95.8642L899.732 95.5346C899.732 92.4564 897.241 89.9609 894.168 89.9609C891.095 89.9609 888.604 92.4564 888.604 95.5346L888.604 95.8642C888.604 98.9425 891.095 101.438 894.168 101.438C897.241 101.438 899.732 98.9425 899.732 95.8642Z" fill="#1A833B" stroke="#F0EDED" stroke-width="0.5" stroke-miterlimit="10"/>
<path d="M854.044 283.748H935.075C936.896 283.748 938.377 285.23 938.377 287.051V375.306C938.377 377.137 936.896 378.619 935.066 378.619H854.034C852.204 378.619 850.723 377.137 850.723 375.306V287.061C850.723 285.23 852.204 283.748 854.034 283.748H854.044Z" fill="#E9F4EC"/>
<path d="M866.855 311.422H894.095" stroke="#1A833B" stroke-width="4" stroke-miterlimit="10" stroke-linecap="round"/>
<path d="M866.855 322.639H903.256" stroke="#1A833B" stroke-width="4" stroke-miterlimit="10" stroke-linecap="round"/>
<path d="M866.855 343.203H923.262" stroke="#1A833B" stroke-width="4" stroke-miterlimit="10" stroke-linecap="round"/>
<path d="M866.855 352.939H923.262" stroke="#1A833B" stroke-width="4" stroke-miterlimit="10" stroke-linecap="round"/>
<path d="M866.855 362.664H895.954" stroke="#1A833B" stroke-width="4" stroke-miterlimit="10" stroke-linecap="round"/>
<path d="M866.855 299.691H880.044" stroke="#1A833B" stroke-width="4" stroke-miterlimit="10" stroke-linecap="round"/>
<path d="M1080.23 215.158H1066.15V229.243H1080.23V215.158Z" fill="white" stroke="#F0EDED" stroke-width="0.5" stroke-miterlimit="10"/>
<path d="M1077.72 219.875H1068.79V213.288C1068.79 210.818 1070.79 208.822 1073.26 208.822C1075.73 208.822 1077.72 210.818 1077.72 213.288V219.875Z" stroke="white" stroke-width="3" stroke-miterlimit="10"/>
<path d="M1080.13 293.445V285.599C1080.13 282.16 1077.6 279.312 1074.29 278.809V278.189C1074.29 277.617 1073.83 277.152 1073.26 277.152C1072.69 277.152 1072.22 277.617 1072.22 278.189V278.809C1068.92 279.312 1066.38 282.151 1066.38 285.599V293.445C1065.44 293.92 1064.8 294.879 1064.8 296.003H1081.71C1081.71 294.879 1081.07 293.92 1080.13 293.445Z" fill="white"/>
<path d="M1073.26 300.313C1075.1 300.313 1076.58 298.821 1076.58 296.99H1069.93C1069.93 298.831 1071.42 300.313 1073.25 300.313H1073.26Z" fill="white"/>
<path d="M764.768 223.677H714.637C705.525 223.677 698.068 216.218 698.068 207.103C698.068 197.949 705.486 190.52 714.637 190.52H764.768C773.919 190.52 781.336 197.939 781.336 207.093C781.336 216.247 773.919 223.667 764.768 223.667V223.677Z" fill="white" stroke="#F0EDED" stroke-width="0.5" stroke-miterlimit="10"/>
<g filter="url(#filter1_d_590_10737)">
<path d="M717.058 195.121H716.342C709.726 195.121 704.363 200.484 704.363 207.099C704.363 213.714 709.726 219.076 716.342 219.076H717.058C723.674 219.076 729.037 213.714 729.037 207.099C729.037 200.484 723.674 195.121 717.058 195.121Z" fill="#2472C4"/>
</g>
<path d="M1069.94 348.92H1117.99" stroke="#156630" stroke-width="4" stroke-miterlimit="10" stroke-linecap="round"/>
<path d="M1069.94 384.791H1117.99" stroke="#156630" stroke-width="4" stroke-miterlimit="10" stroke-linecap="round"/>
<path d="M1149.61 348.92H1164.16" stroke="#156630" stroke-width="4" stroke-miterlimit="10" stroke-linecap="round"/>
<path d="M1149.61 384.791H1164.16" stroke="#156630" stroke-width="4" stroke-miterlimit="10" stroke-linecap="round"/>
</g>
<defs>
<filter id="filter0_dd_590_10737" x="671" y="82" width="527" height="365" filterUnits="userSpaceOnUse" color-interpolation-filters="sRGB">
<feFlood flood-opacity="0" result="BackgroundImageFix"/>
<feColorMatrix in="SourceAlpha" type="matrix" values="0 0 0 0 0 0 0 0 0 0 0 0 0 0 0 0 0 0 127 0" result="hardAlpha"/>
<feMorphology radius="5" operator="erode" in="SourceAlpha" result="effect1_dropShadow_590_10737"/>
<feOffset dy="10"/>
<feGaussianBlur stdDeviation="5"/>
<feColorMatrix type="matrix" values="0 0 0 0 0 0 0 0 0 0 0 0 0 0 0 0 0 0 0.04 0"/>
<feBlend mode="normal" in2="BackgroundImageFix" result="effect1_dropShadow_590_10737"/>
<feColorMatrix in="SourceAlpha" type="matrix" values="0 0 0 0 0 0 0 0 0 0 0 0 0 0 0 0 0 0 127 0" result="hardAlpha"/>
<feMorphology radius="5" operator="erode" in="SourceAlpha" result="effect2_dropShadow_590_10737"/>
<feOffset dy="20"/>
<feGaussianBlur stdDeviation="12.5"/>
<feColorMatrix type="matrix" values="0 0 0 0 0 0 0 0 0 0 0 0 0 0 0 0 0 0 0.1 0"/>
<feBlend mode="normal" in2="effect1_dropShadow_590_10737" result="effect2_dropShadow_590_10737"/>
<feBlend mode="normal" in="SourceGraphic" in2="effect2_dropShadow_590_10737" result="shape"/>
</filter>
<filter id="filter1_d_590_10737" x="689.363" y="180.121" width="44.6738" height="43.9551" filterUnits="userSpaceOnUse" color-interpolation-filters="sRGB">
<feFlood flood-opacity="0" result="BackgroundImageFix"/>
<feColorMatrix in="SourceAlpha" type="matrix" values="0 0 0 0 0 0 0 0 0 0 0 0 0 0 0 0 0 0 127 0" result="hardAlpha"/>
<feOffset dx="-5" dy="-5"/>
<feGaussianBlur stdDeviation="5"/>
<feColorMatrix type="matrix" values="0 0 0 0 0.941176 0 0 0 0 0.941176 0 0 0 0 1 0 0 0 0.5 0"/>
<feBlend mode="normal" in2="BackgroundImageFix" result="effect1_dropShadow_590_10737"/>
<feBlend mode="normal" in="SourceGraphic" in2="effect1_dropShadow_590_10737" result="shape"/>
</filter>
</defs>
</svg>
