<svg width="1242" height="489" viewBox="0 0 1242 489" fill="none" xmlns="http://www.w3.org/2000/svg">
<g clip-path="url(#clip0_53_19)">
<rect width="1242" height="489" rx="8" fill="#156630"/>
<circle opacity="0.1" cx="979" cy="266" r="391" fill="#E9F4EC"/>
<g filter="url(#filter0_dd_53_19)">
<path d="M1174.02 192.423H1055.62C1053.62 192.423 1052 194.041 1052 196.036V402.72C1052 404.716 1053.62 406.333 1055.62 406.333H1174.02C1176.02 406.333 1177.64 404.716 1177.64 402.72V196.036C1177.64 194.041 1176.02 192.423 1174.02 192.423Z" fill="white"/>
<path d="M1174.02 255.338H1055.62C1053.62 255.338 1052 256.956 1052 258.951V324.036C1052 326.031 1053.62 327.649 1055.62 327.649H1174.02C1176.02 327.649 1177.64 326.031 1177.64 324.036V258.951C1177.64 256.956 1176.02 255.338 1174.02 255.338Z" fill="#05502A"/>
<path d="M1031.56 264.734H810.14C807.971 262.554 806.751 261.344 804.572 259.164V134.003C804.572 130.933 807.061 128.433 810.14 128.433H1031.56C1034.63 128.433 1037.13 130.923 1037.13 134.003V259.164C1037.13 262.235 1034.64 264.734 1031.56 264.734Z" fill="white" stroke="#F0EDED" stroke-width="0.5" stroke-miterlimit="10"/>
<path d="M701.424 247.589H835.414C837.234 247.589 838.716 249.071 838.716 250.892V276.387C838.716 278.218 837.234 279.7 835.404 279.7H701.424C699.594 279.7 698.112 278.218 698.112 276.387V250.892C698.112 249.061 699.594 247.579 701.424 247.579V247.589Z" fill="#2472C4"/>
<path d="M701.424 293.135H835.414C837.234 293.135 838.716 294.617 838.716 296.438V321.934C838.716 323.764 837.234 325.246 835.404 325.246H701.424C699.594 325.246 698.112 323.764 698.112 321.934V296.438C698.112 294.608 699.594 293.125 701.424 293.125V293.135Z" fill="white" stroke="#F0EDED" stroke-width="0.5" stroke-miterlimit="10"/>
<path d="M884.248 215.846C884.248 218.839 881.817 221.27 878.825 221.27H828.587C825.024 221.27 822.128 218.383 822.128 214.809V204.183V152.873C822.128 149.88 824.559 147.448 827.551 147.448H878.825C881.817 147.448 884.248 149.88 884.248 152.873V215.846Z" fill="#E3E0E0"/>
<path d="M884.248 215.846C884.248 218.839 881.817 221.27 878.825 221.27H827.706C824.626 221.27 822.128 218.771 822.128 215.691V208.513V152.873C822.128 149.88 824.559 147.448 827.551 147.448H878.825C881.817 147.448 884.248 149.88 884.248 152.873V215.846Z" fill="#156630"/>
<path d="M1174.02 192.423H1055.62C1053.62 192.423 1052 194.041 1052 196.036V261.121C1052 263.116 1053.62 264.734 1055.62 264.734H1174.02C1176.02 264.734 1177.64 263.116 1177.64 261.121V196.036C1177.64 194.041 1176.02 192.423 1174.02 192.423Z" fill="#2472C4"/>
<path d="M897.659 165.359H946.803" stroke="#E9F4EC" stroke-width="4" stroke-miterlimit="10" stroke-linecap="round"/>
<path d="M897.659 176.576H963.342" stroke="#E9F4EC" stroke-width="4" stroke-miterlimit="10" stroke-linecap="round"/>
<path d="M897.659 197.141H999.423" stroke="#E9F4EC" stroke-width="4" stroke-miterlimit="10" stroke-linecap="round"/>
<path d="M897.659 206.876H999.423" stroke="#E9F4EC" stroke-width="4" stroke-miterlimit="10" stroke-linecap="round"/>
<path d="M897.659 216.611H950.163" stroke="#E9F4EC" stroke-width="4" stroke-miterlimit="10" stroke-linecap="round"/>
<path d="M897.659 153.638H921.451" stroke="#E9F4EC" stroke-width="4" stroke-miterlimit="10" stroke-linecap="round"/>
<path d="M1092.6 211.554H1127.08" stroke="#E9F4EC" stroke-width="4" stroke-miterlimit="10" stroke-linecap="round"/>
<path d="M1092.6 225.6H1164.01" stroke="#E9F4EC" stroke-width="4" stroke-miterlimit="10" stroke-linecap="round"/>
<path d="M1092.6 233.96H1164.01" stroke="#E9F4EC" stroke-width="4" stroke-miterlimit="10" stroke-linecap="round"/>
<path d="M1092.6 242.329H1129.44" stroke="#E9F4EC" stroke-width="4" stroke-miterlimit="10" stroke-linecap="round"/>
<path d="M1092.6 282.122H1127.08" stroke="#E9F4EC" stroke-width="4" stroke-miterlimit="10" stroke-linecap="round"/>
<path d="M1092.6 296.167H1164.01" stroke="#E9F4EC" stroke-width="4" stroke-miterlimit="10" stroke-linecap="round"/>
<path d="M1092.6 304.536H1164.01" stroke="#E9F4EC" stroke-width="4" stroke-miterlimit="10" stroke-linecap="round"/>
<path d="M1092.6 312.896H1129.44" stroke="#E9F4EC" stroke-width="4" stroke-miterlimit="10" stroke-linecap="round"/>
<path d="M711.359 263.649H782.474" stroke="#E9F4EC" stroke-width="4" stroke-miterlimit="10" stroke-linecap="round"/>
<path d="M711.359 309.186H782.474" stroke="#D0ECD6" stroke-width="4" stroke-miterlimit="10" stroke-linecap="round"/>
<path d="M817.538 263.649H826.921" stroke="#E9F4EC" stroke-width="4" stroke-miterlimit="10" stroke-linecap="round"/>
<path d="M817.538 309.186H826.921" stroke="#D0ECD6" stroke-width="4" stroke-miterlimit="10" stroke-linecap="round"/>
<path d="M952.739 283.749H1033.77C1035.59 283.749 1037.07 285.231 1037.07 287.052V375.307C1037.07 377.138 1035.59 378.62 1033.76 378.62H952.729C950.899 378.62 949.417 377.138 949.417 375.307V287.062C949.417 285.231 950.899 283.749 952.729 283.749H952.739Z" fill="#D0ECD6"/>
<path d="M804.523 105.237L804.523 86.1699C804.523 84.2022 806.11 82.6124 808.074 82.6124L937.132 82.6124C939.096 82.6124 940.683 84.2022 940.683 86.1699L940.683 105.237C940.683 107.205 939.096 108.794 937.132 108.794L808.074 108.794C806.11 108.794 804.523 107.205 804.523 105.237Z" fill="white" stroke="#F0EDED" stroke-width="0.5" stroke-miterlimit="10"/>
<path d="M931.413 95.6985L815.099 95.6985" stroke="#1A833B" stroke-width="2" stroke-miterlimit="10" stroke-linecap="round"/>
<path d="M899.732 95.8633L899.732 95.5337C899.732 92.4554 897.24 89.96 894.167 89.96C891.094 89.96 888.603 92.4554 888.603 95.5337L888.603 95.8633C888.603 98.9415 891.094 101.437 894.167 101.437C897.24 101.437 899.732 98.9415 899.732 95.8633Z" fill="#1A833B" stroke="#F0EDED" stroke-width="0.5" stroke-miterlimit="10"/>
<path d="M854.045 283.749H935.076C936.896 283.749 938.378 285.231 938.378 287.052V375.307C938.378 377.138 936.896 378.62 935.066 378.62H854.035C852.205 378.62 850.723 377.138 850.723 375.307V287.062C850.723 285.231 852.205 283.749 854.035 283.749H854.045Z" fill="#E9F4EC"/>
<path d="M866.856 311.423H894.096" stroke="#1A833B" stroke-width="4" stroke-miterlimit="10" stroke-linecap="round"/>
<path d="M866.856 322.641H903.256" stroke="#1A833B" stroke-width="4" stroke-miterlimit="10" stroke-linecap="round"/>
<path d="M866.856 343.205H923.262" stroke="#1A833B" stroke-width="4" stroke-miterlimit="10" stroke-linecap="round"/>
<path d="M866.856 352.94H923.262" stroke="#1A833B" stroke-width="4" stroke-miterlimit="10" stroke-linecap="round"/>
<path d="M866.856 362.666H895.955" stroke="#1A833B" stroke-width="4" stroke-miterlimit="10" stroke-linecap="round"/>
<path d="M866.856 299.693H880.045" stroke="#1A833B" stroke-width="4" stroke-miterlimit="10" stroke-linecap="round"/>
<path d="M1080.23 215.158H1066.15V229.242H1080.23V215.158Z" fill="white" stroke="#F0EDED" stroke-width="0.5" stroke-miterlimit="10"/>
<path d="M1077.72 219.875H1068.79V213.288C1068.79 210.818 1070.79 208.823 1073.26 208.823C1075.73 208.823 1077.72 210.818 1077.72 213.288V219.875Z" stroke="white" stroke-width="3" stroke-miterlimit="10"/>
<path d="M1080.13 293.445V285.599C1080.13 282.16 1077.6 279.312 1074.29 278.809V278.189C1074.29 277.617 1073.83 277.152 1073.26 277.152C1072.69 277.152 1072.22 277.617 1072.22 278.189V278.809C1068.92 279.312 1066.38 282.151 1066.38 285.599V293.445C1065.44 293.92 1064.81 294.879 1064.81 296.003H1081.71C1081.71 294.879 1081.07 293.92 1080.13 293.445Z" fill="white"/>
<path d="M1073.26 300.313C1075.1 300.313 1076.58 298.821 1076.58 296.99H1069.93C1069.93 298.831 1071.42 300.313 1073.25 300.313H1073.26Z" fill="white"/>
<path d="M764.768 223.677H714.637C705.524 223.677 698.068 216.218 698.068 207.103C698.068 197.949 705.486 190.519 714.637 190.519H764.768C773.919 190.519 781.336 197.939 781.336 207.093C781.336 216.247 773.919 223.667 764.768 223.667V223.677Z" fill="white" stroke="#F0EDED" stroke-width="0.5" stroke-miterlimit="10"/>
<g filter="url(#filter1_d_53_19)">
<path d="M717.057 195.121H716.341C709.725 195.121 704.362 200.483 704.362 207.098C704.362 213.713 709.725 219.076 716.341 219.076H717.057C723.673 219.076 729.036 213.713 729.036 207.098C729.036 200.483 723.673 195.121 717.057 195.121Z" fill="#2472C4"/>
</g>
<path d="M1069.94 348.92H1117.99" stroke="#156630" stroke-width="4" stroke-miterlimit="10" stroke-linecap="round"/>
<path d="M1069.94 384.79H1117.99" stroke="#156630" stroke-width="4" stroke-miterlimit="10" stroke-linecap="round"/>
<path d="M1149.61 348.92H1164.16" stroke="#156630" stroke-width="4" stroke-miterlimit="10" stroke-linecap="round"/>
<path d="M1149.61 384.79H1164.16" stroke="#156630" stroke-width="4" stroke-miterlimit="10" stroke-linecap="round"/>
</g>
</g>
<defs>
<filter id="filter0_dd_53_19" x="671" y="82" width="527" height="365" filterUnits="userSpaceOnUse" color-interpolation-filters="sRGB">
<feFlood flood-opacity="0" result="BackgroundImageFix"/>
<feColorMatrix in="SourceAlpha" type="matrix" values="0 0 0 0 0 0 0 0 0 0 0 0 0 0 0 0 0 0 127 0" result="hardAlpha"/>
<feMorphology radius="5" operator="erode" in="SourceAlpha" result="effect1_dropShadow_53_19"/>
<feOffset dy="10"/>
<feGaussianBlur stdDeviation="5"/>
<feColorMatrix type="matrix" values="0 0 0 0 0 0 0 0 0 0 0 0 0 0 0 0 0 0 0.04 0"/>
<feBlend mode="normal" in2="BackgroundImageFix" result="effect1_dropShadow_53_19"/>
<feColorMatrix in="SourceAlpha" type="matrix" values="0 0 0 0 0 0 0 0 0 0 0 0 0 0 0 0 0 0 127 0" result="hardAlpha"/>
<feMorphology radius="5" operator="erode" in="SourceAlpha" result="effect2_dropShadow_53_19"/>
<feOffset dy="20"/>
<feGaussianBlur stdDeviation="12.5"/>
<feColorMatrix type="matrix" values="0 0 0 0 0 0 0 0 0 0 0 0 0 0 0 0 0 0 0.1 0"/>
<feBlend mode="normal" in2="effect1_dropShadow_53_19" result="effect2_dropShadow_53_19"/>
<feBlend mode="normal" in="SourceGraphic" in2="effect2_dropShadow_53_19" result="shape"/>
</filter>
<filter id="filter1_d_53_19" x="689.362" y="180.121" width="44.6734" height="43.9551" filterUnits="userSpaceOnUse" color-interpolation-filters="sRGB">
<feFlood flood-opacity="0" result="BackgroundImageFix"/>
<feColorMatrix in="SourceAlpha" type="matrix" values="0 0 0 0 0 0 0 0 0 0 0 0 0 0 0 0 0 0 127 0" result="hardAlpha"/>
<feOffset dx="-5" dy="-5"/>
<feGaussianBlur stdDeviation="5"/>
<feColorMatrix type="matrix" values="0 0 0 0 0.941176 0 0 0 0 0.941176 0 0 0 0 1 0 0 0 0.5 0"/>
<feBlend mode="normal" in2="BackgroundImageFix" result="effect1_dropShadow_53_19"/>
<feBlend mode="normal" in="SourceGraphic" in2="effect1_dropShadow_53_19" result="shape"/>
</filter>
<clipPath id="clip0_53_19">
<rect width="1242" height="489" rx="8" fill="white"/>
</clipPath>
</defs>
</svg>
