<svg width="917" height="562" viewBox="0 0 917 562" fill="none" xmlns="http://www.w3.org/2000/svg">
<rect x="0.5" y="0.5" width="916" height="560.4" rx="7.5" stroke="#DEDEDE"/>
<g clip-path="url(#clip0_109_617)">
<mask id="mask0_109_617" style="mask-type:luminance" maskUnits="userSpaceOnUse" x="104" y="68" width="709" height="426">
<path d="M813 68H104V493.4H813V68Z" fill="white"/>
</mask>
<g mask="url(#mask0_109_617)">
<path d="M813 68H104V493.4H813V68Z" fill="#033019"/>
<path d="M824.3 611.271C968.079 611.271 1084.64 494.715 1084.64 350.935C1084.64 207.156 968.079 90.5994 824.3 90.5994C680.52 90.5994 563.964 207.156 563.964 350.935C563.964 494.715 680.52 611.271 824.3 611.271Z" fill="white" fill-opacity="0.08"/>
<path d="M189.509 184.34L165.963 174.385V169.839L189.509 159.932V164.575L167.782 173.62V170.653L189.509 179.698V184.34ZM195.807 185.871V152.132H210.787C214.488 152.132 217.311 153.025 219.258 154.812C221.204 156.598 222.177 159.055 222.177 162.182C222.177 165.277 221.204 167.733 219.258 169.552C217.311 171.37 214.488 172.28 210.787 172.28H201.981V185.871H195.807ZM201.981 167.398H210.069C212.111 167.398 213.642 166.952 214.663 166.058C215.684 165.133 216.195 163.841 216.195 162.182C216.195 160.523 215.684 159.247 214.663 158.353C213.642 157.428 212.111 156.965 210.069 156.965H201.981V167.398ZM226.688 185.871V167.877C226.688 166.856 226.656 165.819 226.592 164.766C226.56 163.713 226.48 162.692 226.353 161.703H232.143L232.813 168.308H231.856C232.175 166.712 232.702 165.388 233.435 164.335C234.201 163.283 235.126 162.501 236.211 161.99C237.296 161.48 238.476 161.225 239.753 161.225C240.327 161.225 240.79 161.257 241.14 161.32C241.491 161.352 241.842 161.432 242.193 161.56L242.146 166.824C241.539 166.569 241.013 166.409 240.566 166.345C240.151 166.282 239.625 166.25 238.987 166.25C237.615 166.25 236.45 166.537 235.493 167.111C234.568 167.685 233.866 168.483 233.388 169.504C232.941 170.525 232.718 171.689 232.718 172.998V185.871H226.688ZM256.061 186.35C253.572 186.35 251.419 185.839 249.6 184.818C247.782 183.797 246.362 182.346 245.341 180.463C244.352 178.581 243.857 176.348 243.857 173.763C243.857 171.179 244.352 168.962 245.341 167.111C246.362 165.229 247.782 163.777 249.6 162.756C251.419 161.735 253.572 161.225 256.061 161.225C258.55 161.225 260.703 161.735 262.522 162.756C264.372 163.777 265.792 165.229 266.781 167.111C267.802 168.962 268.312 171.179 268.312 173.763C268.312 176.348 267.802 178.581 266.781 180.463C265.792 182.346 264.372 183.797 262.522 184.818C260.703 185.839 258.55 186.35 256.061 186.35ZM256.061 181.756C257.943 181.756 259.443 181.101 260.56 179.793C261.676 178.453 262.235 176.443 262.235 173.763C262.235 171.083 261.676 169.089 260.56 167.781C259.443 166.473 257.943 165.819 256.061 165.819C254.179 165.819 252.679 166.473 251.562 167.781C250.446 169.089 249.887 171.083 249.887 173.763C249.887 176.443 250.446 178.453 251.562 179.793C252.679 181.101 254.179 181.756 256.061 181.756ZM282.086 186.35C280.012 186.35 278.098 186.111 276.343 185.632C274.62 185.121 273.168 184.42 271.988 183.526L273.663 179.506C274.875 180.336 276.215 180.974 277.683 181.421C279.15 181.867 280.634 182.091 282.134 182.091C283.729 182.091 284.909 181.819 285.675 181.277C286.473 180.735 286.871 180.001 286.871 179.075C286.871 178.342 286.616 177.767 286.106 177.353C285.627 176.906 284.845 176.571 283.761 176.348L278.975 175.438C276.933 174.992 275.37 174.226 274.285 173.141C273.232 172.056 272.706 170.637 272.706 168.882C272.706 167.382 273.104 166.058 273.902 164.91C274.732 163.761 275.896 162.868 277.396 162.23C278.927 161.56 280.714 161.225 282.756 161.225C284.542 161.225 286.217 161.464 287.781 161.943C289.376 162.421 290.716 163.139 291.801 164.096L290.078 167.973C289.089 167.175 287.956 166.553 286.68 166.106C285.404 165.659 284.16 165.436 282.947 165.436C281.288 165.436 280.076 165.739 279.31 166.345C278.544 166.92 278.161 167.669 278.161 168.595C278.161 169.297 278.385 169.887 278.831 170.365C279.31 170.812 280.044 171.147 281.033 171.37L285.819 172.28C287.956 172.694 289.567 173.428 290.652 174.481C291.769 175.502 292.327 176.906 292.327 178.693C292.327 180.288 291.896 181.66 291.035 182.808C290.174 183.957 288.977 184.834 287.446 185.441C285.914 186.047 284.128 186.35 282.086 186.35ZM295.054 196.496C294.448 196.496 293.793 196.448 293.092 196.352C292.358 196.256 291.72 196.097 291.177 195.873V191.136C291.592 191.263 292.039 191.375 292.517 191.471C292.996 191.566 293.458 191.614 293.905 191.614C295.054 191.614 295.947 191.263 296.585 190.561C297.255 189.859 297.59 188.679 297.59 187.02V161.703H303.572V187.355C303.572 190.354 302.886 192.619 301.515 194.151C300.143 195.714 297.989 196.496 295.054 196.496ZM297.207 157.157V151.318H303.86V157.157H297.207ZM321.602 186.35C317.55 186.35 314.376 185.233 312.079 183C309.781 180.766 308.633 177.704 308.633 173.811C308.633 171.291 309.127 169.089 310.116 167.207C311.106 165.324 312.477 163.857 314.232 162.804C316.019 161.751 318.093 161.225 320.454 161.225C322.783 161.225 324.729 161.719 326.292 162.708C327.856 163.697 329.036 165.085 329.834 166.872C330.663 168.659 331.078 170.748 331.078 173.141V174.72H313.466V171.562H326.819L326.005 172.232C326.005 169.999 325.527 168.292 324.569 167.111C323.644 165.931 322.288 165.34 320.502 165.34C318.523 165.34 316.992 166.042 315.907 167.446C314.854 168.85 314.328 170.812 314.328 173.333V173.955C314.328 176.571 314.966 178.533 316.242 179.841C317.55 181.117 319.385 181.756 321.746 181.756C323.118 181.756 324.394 181.58 325.574 181.229C326.787 180.846 327.935 180.24 329.02 179.41L330.791 183.431C329.642 184.356 328.27 185.074 326.675 185.584C325.08 186.095 323.389 186.35 321.602 186.35ZM336.144 185.871V150.648H342.126V171.993H342.222L352.033 161.703H359.259L347.055 174.481L347.103 172.088L360.12 185.871H352.703L342.222 175.055H342.126V185.871H336.144ZM372.186 186.35C369.314 186.35 367.145 185.6 365.677 184.101C364.21 182.601 363.476 180.352 363.476 177.353V166.202H358.834V161.703H363.476V155.53L369.458 153.998V161.703H375.919V166.202H369.458V176.97C369.458 178.629 369.777 179.793 370.415 180.463C371.053 181.133 371.931 181.468 373.047 181.468C373.653 181.468 374.164 181.421 374.579 181.325C375.025 181.229 375.456 181.101 375.871 180.942V185.68C375.329 185.903 374.722 186.063 374.052 186.158C373.414 186.286 372.792 186.35 372.186 186.35ZM379.982 185.871V167.733C379.982 166.744 379.95 165.739 379.886 164.718C379.823 163.697 379.727 162.692 379.599 161.703H385.39L385.869 166.489H385.294C386.06 164.798 387.193 163.506 388.692 162.613C390.192 161.687 391.931 161.225 393.909 161.225C396.748 161.225 398.886 162.022 400.322 163.618C401.757 165.213 402.475 167.701 402.475 171.083V185.871H396.493V171.37C396.493 169.424 396.11 168.036 395.344 167.207C394.611 166.345 393.494 165.915 391.994 165.915C390.144 165.915 388.676 166.489 387.592 167.638C386.507 168.786 385.964 170.318 385.964 172.232V185.871H379.982ZM418.15 186.35C416.045 186.35 414.194 185.855 412.599 184.866C411.004 183.845 409.759 182.394 408.866 180.511C407.973 178.629 407.526 176.38 407.526 173.763C407.526 171.147 407.973 168.914 408.866 167.063C409.759 165.181 411.004 163.745 412.599 162.756C414.194 161.735 416.045 161.225 418.15 161.225C420.192 161.225 421.979 161.735 423.51 162.756C425.074 163.745 426.111 165.085 426.621 166.776H426.095L426.621 161.703H432.364C432.268 162.692 432.173 163.697 432.077 164.718C432.013 165.739 431.981 166.744 431.981 167.733V185.871H426.047L425.999 180.894H426.573C426.063 182.553 425.026 183.877 423.463 184.866C421.899 185.855 420.128 186.35 418.15 186.35ZM419.825 181.756C421.708 181.756 423.223 181.101 424.372 179.793C425.52 178.453 426.095 176.443 426.095 173.763C426.095 171.083 425.52 169.089 424.372 167.781C423.223 166.473 421.708 165.819 419.825 165.819C417.943 165.819 416.427 166.473 415.279 167.781C414.13 169.089 413.556 171.083 413.556 173.763C413.556 176.443 414.114 178.453 415.231 179.793C416.38 181.101 417.911 181.756 419.825 181.756ZM445.344 185.871L434.912 161.703H441.277L448.838 180.607H447.354L455.107 161.703H461.09L450.609 185.871H445.344ZM464.293 185.871V167.733C464.293 166.744 464.261 165.739 464.198 164.718C464.134 163.697 464.038 162.692 463.911 161.703H469.701L470.18 166.489H469.606C470.371 164.798 471.504 163.506 473.003 162.613C474.503 161.687 476.242 161.225 478.22 161.225C481.059 161.225 483.197 162.022 484.633 163.618C486.069 165.213 486.786 167.701 486.786 171.083V185.871H480.804V171.37C480.804 169.424 480.421 168.036 479.656 167.207C478.922 166.345 477.805 165.915 476.306 165.915C474.455 165.915 472.987 166.489 471.903 167.638C470.818 168.786 470.276 170.318 470.276 172.232V185.871H464.293ZM492.508 184.34V179.698L514.187 170.653V173.62L492.508 164.575V159.932L516.006 169.839V174.385L492.508 184.34Z" fill="white"/>
<path d="M195.119 376.302H167.8C166.458 376.302 165.352 377.409 165.352 378.753V395.513C167.484 393.853 170.169 391.639 174.985 392.825C179.17 393.853 180.038 397.094 186.671 400.731C190.697 402.944 194.487 401.205 197.567 399.466V378.753C197.567 377.409 196.461 376.302 195.119 376.302Z" fill="white"/>
<path d="M188.803 408.162C187.46 408.004 186.355 407.529 185.328 406.818C183.039 405.395 180.828 403.102 176.091 400.652C172.379 398.834 168.669 400.256 165.352 402.154V420.89C165.352 422.234 166.458 423.341 167.8 423.341H195.04C196.382 423.341 197.488 422.234 197.488 420.89V405.553C194.645 407.213 191.882 408.636 188.803 408.162Z" fill="white"/>
<path d="M206.252 414.882V399.387H208.147V414.882H206.252ZM210.279 406.66L216.437 414.882H214.069L208.147 406.66L214.069 399.387H216.437L210.279 406.66Z" fill="white"/>
<path d="M226.622 415.277C225.833 415.04 225.28 414.407 225.123 413.617C224.017 414.724 223.148 415.119 221.885 415.119C219.122 415.119 218.253 413.458 218.253 411.877C218.253 409.348 220.464 407.846 224.175 407.846C224.412 407.846 224.569 407.846 224.964 407.846V407.055C224.964 406.027 224.885 405.632 224.569 405.316C224.175 404.921 223.78 404.683 223.07 404.683C221.806 404.683 220.227 405.395 219.517 406.027L218.648 404.841C220.148 403.814 221.727 403.34 223.385 403.34C224.964 403.34 225.991 403.972 226.465 405.079C226.701 405.711 226.701 406.581 226.701 407.529L226.622 411.245C226.544 413.063 226.701 413.538 227.491 414.012L226.622 415.277ZM224.096 409.111C221.254 409.111 220.227 410.059 220.227 411.799C220.227 413.143 220.859 413.854 222.201 413.854C223.385 413.854 224.412 413.143 224.964 412.114L225.044 409.189C224.728 409.111 224.333 409.111 224.096 409.111Z" fill="white"/>
<path d="M235.544 405.316C235.465 405.237 235.229 405.237 235.071 405.237C234.36 405.237 233.728 405.553 233.176 406.027C232.623 406.581 232.544 406.897 232.544 407.846V414.882H230.807V406.185C230.807 404.683 230.491 403.972 230.412 403.814L232.15 403.34C232.228 403.497 232.544 404.367 232.544 405.158C233.334 403.972 234.518 403.26 235.703 403.26C235.939 403.26 236.255 403.34 236.334 403.34L235.544 405.316Z" fill="white"/>
<path d="M243.519 404.921H241.15V412.194C241.15 413.458 241.466 413.854 242.571 413.854C243.046 413.854 243.361 413.775 243.677 413.617L243.914 414.724C243.361 415.04 242.73 415.198 241.94 415.198C241.387 415.198 240.914 415.119 240.44 414.882C239.65 414.486 239.334 413.775 239.334 412.668V404.921H237.834V403.577H239.334C239.334 402.628 239.492 401.126 239.492 400.731L241.308 400.335C241.229 400.731 241.071 402.233 241.071 403.577H243.914L243.519 404.921Z" fill="white"/>
<path d="M251.73 414.961H249.993L245.967 403.735L247.782 403.34L250.388 411.087C250.625 411.877 250.862 412.826 250.941 412.984H251.02C251.099 412.826 251.257 411.957 251.573 411.087L254.178 403.656H256.073L251.73 414.961Z" fill="white"/>
<path d="M259.626 409.506V409.743C259.626 410.771 259.784 411.64 260.179 412.194C260.81 413.143 261.837 413.538 262.942 413.538C264.047 413.538 264.916 413.221 265.706 412.51L266.416 413.617C265.39 414.486 264.047 415.04 262.626 415.04C259.547 415.04 257.652 412.747 257.652 409.032C257.652 407.134 258.047 405.948 258.994 404.763C259.863 403.735 260.968 403.182 262.39 403.182C263.574 403.182 264.679 403.577 265.469 404.367C266.416 405.395 266.732 406.423 266.732 409.111V409.348H259.626V409.506ZM264.206 405.711C263.811 405.079 263.021 404.683 262.153 404.683C260.573 404.683 259.626 405.869 259.547 408.162H264.679C264.758 406.976 264.6 406.265 264.206 405.711Z" fill="white"/>
<path d="M274.707 405.316C274.628 405.237 274.391 405.237 274.233 405.237C273.522 405.237 272.891 405.553 272.338 406.027C271.785 406.581 271.706 406.897 271.706 407.846V414.882H269.969V406.185C269.969 404.683 269.653 403.972 269.575 403.814L271.312 403.34C271.391 403.497 271.706 404.367 271.706 405.158C272.496 403.972 273.68 403.26 274.865 403.26C275.102 403.26 275.417 403.34 275.496 403.34L274.707 405.316Z" fill="white"/>
<path d="M277.786 414.882V401.047C277.786 399.703 277.549 398.912 277.47 398.754L279.207 398.438C279.286 398.596 279.523 399.545 279.523 401.126V414.961H277.786V414.882ZM284.813 414.882L279.681 408.557L283.945 403.656H286.155L281.734 408.557L287.182 414.882H284.813Z" fill="white"/>
<path d="M290.261 409.506V409.743C290.261 410.771 290.419 411.64 290.813 412.194C291.445 413.143 292.472 413.538 293.577 413.538C294.682 413.538 295.551 413.221 296.341 412.51L297.051 413.617C296.025 414.486 294.682 415.04 293.261 415.04C290.182 415.04 288.287 412.747 288.287 409.032C288.287 407.134 288.682 405.948 289.629 404.763C290.498 403.735 291.603 403.182 293.024 403.182C294.209 403.182 295.314 403.577 296.104 404.367C297.051 405.395 297.367 406.423 297.367 409.111V409.348H290.261V409.506ZM294.919 405.711C294.525 405.079 293.735 404.683 292.866 404.683C291.287 404.683 290.34 405.869 290.261 408.162H295.393C295.393 406.976 295.235 406.265 294.919 405.711Z" fill="white"/>
<path d="M304.868 404.921H302.499V412.194C302.499 413.458 302.815 413.854 303.92 413.854C304.394 413.854 304.71 413.775 305.026 413.617L305.263 414.724C304.71 415.04 304.079 415.198 303.289 415.198C302.736 415.198 302.262 415.119 301.788 414.882C300.999 414.486 300.683 413.775 300.683 412.668V404.921H299.183V403.577H300.683C300.683 402.628 300.841 401.126 300.841 400.731L302.657 400.335C302.578 400.731 302.42 402.233 302.42 403.577H305.263L304.868 404.921Z" fill="white"/>
<path d="M305.29 214.674H167.256C166.094 214.674 165.151 215.617 165.151 216.779V229.408C165.151 230.571 166.094 231.513 167.256 231.513H305.29C306.452 231.513 307.394 230.571 307.394 229.408V216.779C307.394 215.617 306.452 214.674 305.29 214.674Z" fill="#156630"/>
<path d="M170.159 227.525V218.34H176.348V219.941H172.101V222.13H176.03V223.731H172.101V225.924H176.366V227.525H170.159ZM179.834 218.34V227.525H177.892V218.34H179.834ZM181.432 227.525V218.34H187.621V219.941H183.373V222.13H187.302V223.731H183.373V225.924H187.639V227.525H181.432ZM189.165 227.525V218.34H192.788C193.482 218.34 194.074 218.464 194.564 218.713C195.057 218.958 195.433 219.306 195.69 219.757C195.95 220.206 196.08 220.734 196.08 221.341C196.08 221.95 195.948 222.475 195.685 222.915C195.422 223.351 195.041 223.686 194.542 223.919C194.045 224.152 193.444 224.269 192.739 224.269H190.313V222.708H192.425C192.796 222.708 193.104 222.658 193.349 222.556C193.594 222.454 193.776 222.302 193.896 222.098C194.019 221.895 194.08 221.643 194.08 221.341C194.08 221.035 194.019 220.778 193.896 220.569C193.776 220.36 193.592 220.201 193.344 220.094C193.099 219.983 192.79 219.928 192.416 219.928H191.106V227.525H189.165ZM194.125 223.345L196.408 227.525H194.264L192.03 223.345H194.125ZM201.959 227.525H199.878L203.048 218.34H205.551L208.717 227.525H206.636L204.336 220.439H204.264L201.959 227.525ZM201.828 223.915H206.743V225.431H201.828V223.915ZM210.335 218.34L212.555 225.319H212.64L214.865 218.34H217.017L213.851 227.525H211.348L208.178 218.34H210.335ZM221.045 227.525V218.34H224.669C225.366 218.34 225.959 218.473 226.45 218.739C226.94 219.002 227.314 219.369 227.571 219.838C227.831 220.305 227.961 220.843 227.961 221.453C227.961 222.063 227.83 222.601 227.566 223.067C227.303 223.534 226.922 223.897 226.423 224.157C225.926 224.417 225.325 224.547 224.62 224.547H222.31V222.991H224.306C224.68 222.991 224.988 222.927 225.23 222.798C225.475 222.667 225.657 222.486 225.777 222.255C225.899 222.022 225.961 221.755 225.961 221.453C225.961 221.148 225.899 220.882 225.777 220.654C225.657 220.424 225.475 220.246 225.23 220.121C224.985 219.992 224.674 219.928 224.297 219.928H222.988V227.525H221.045ZM229.222 227.525V218.34H232.846C233.54 218.34 234.132 218.464 234.622 218.713C235.115 218.958 235.491 219.306 235.748 219.757C236.008 220.206 236.138 220.734 236.138 221.341C236.138 221.95 236.006 222.475 235.743 222.915C235.48 223.351 235.099 223.686 234.6 223.919C234.103 224.152 233.502 224.269 232.797 224.269H230.37V222.708H232.483C232.854 222.708 233.161 222.658 233.407 222.556C233.652 222.454 233.834 222.302 233.954 222.098C234.076 221.895 234.137 221.643 234.137 221.341C234.137 221.035 234.076 220.778 233.954 220.569C233.834 220.36 233.65 220.201 233.402 220.094C233.157 219.983 232.848 219.928 232.474 219.928H231.164V227.525H229.222ZM234.183 223.345L236.465 227.525H234.321L232.088 223.345H234.183ZM245.95 222.932C245.95 223.934 245.761 224.786 245.381 225.489C245.004 226.192 244.49 226.728 243.838 227.099C243.189 227.467 242.46 227.65 241.65 227.65C240.834 227.65 240.101 227.465 239.452 227.094C238.803 226.724 238.29 226.187 237.914 225.484C237.537 224.782 237.349 223.931 237.349 222.932C237.349 221.931 237.537 221.079 237.914 220.377C238.29 219.674 238.803 219.138 239.452 218.771C240.101 218.4 240.834 218.215 241.65 218.215C242.46 218.215 243.189 218.4 243.838 218.771C244.49 219.138 245.004 219.674 245.381 220.377C245.761 221.079 245.95 221.931 245.95 222.932ZM243.981 222.932C243.981 222.284 243.884 221.736 243.69 221.291C243.499 220.846 243.228 220.508 242.879 220.278C242.528 220.047 242.119 219.932 241.65 219.932C241.18 219.932 240.771 220.047 240.421 220.278C240.071 220.508 239.799 220.846 239.605 221.291C239.413 221.736 239.318 222.284 239.318 222.932C239.318 223.581 239.413 224.128 239.605 224.574C239.799 225.02 240.071 225.357 240.421 225.588C240.771 225.818 241.18 225.933 241.65 225.933C242.119 225.933 242.528 225.818 242.879 225.588C243.228 225.357 243.499 225.02 243.69 224.574C243.884 224.128 243.981 223.581 243.981 222.932ZM252.372 220.982C252.336 220.62 252.181 220.339 251.909 220.139C251.637 219.938 251.268 219.838 250.802 219.838C250.485 219.838 250.217 219.883 249.999 219.973C249.781 220.059 249.614 220.181 249.497 220.336C249.383 220.491 249.326 220.668 249.326 220.865C249.32 221.03 249.355 221.173 249.43 221.296C249.507 221.418 249.614 221.524 249.748 221.614C249.883 221.701 250.038 221.777 250.214 221.843C250.391 221.906 250.579 221.959 250.779 222.004L251.605 222.202C252.005 222.291 252.373 222.411 252.708 222.56C253.043 222.71 253.333 222.894 253.578 223.112C253.823 223.33 254.013 223.587 254.148 223.883C254.285 224.179 254.355 224.519 254.358 224.901C254.355 225.464 254.212 225.951 253.928 226.364C253.646 226.773 253.24 227.092 252.708 227.319C252.179 227.543 251.54 227.655 250.793 227.655C250.051 227.655 249.406 227.541 248.855 227.314C248.308 227.087 247.881 226.75 247.573 226.305C247.268 225.857 247.108 225.302 247.093 224.641H248.972C248.993 224.949 249.081 225.207 249.236 225.413C249.395 225.616 249.606 225.77 249.869 225.875C250.135 225.976 250.436 226.027 250.771 226.027C251.099 226.027 251.385 225.979 251.627 225.884C251.872 225.788 252.062 225.655 252.197 225.484C252.331 225.314 252.399 225.118 252.399 224.897C252.399 224.691 252.337 224.517 252.215 224.377C252.095 224.236 251.919 224.116 251.685 224.018C251.455 223.919 251.173 223.83 250.838 223.749L249.838 223.498C249.063 223.31 248.452 223.015 248.003 222.614C247.555 222.214 247.332 221.674 247.335 220.995C247.332 220.439 247.48 219.953 247.779 219.538C248.081 219.122 248.495 218.798 249.022 218.565C249.548 218.331 250.146 218.215 250.815 218.215C251.497 218.215 252.092 218.331 252.6 218.565C253.112 218.798 253.509 219.122 253.793 219.538C254.077 219.953 254.224 220.435 254.233 220.982H252.372ZM259.342 218.34H261.262V224.744C261.262 225.336 261.128 225.851 260.862 226.287C260.599 226.724 260.233 227.06 259.763 227.296C259.294 227.533 258.749 227.65 258.126 227.65C257.573 227.65 257.071 227.553 256.62 227.359C256.171 227.162 255.816 226.863 255.552 226.462C255.289 226.059 255.159 225.552 255.162 224.942H257.095C257.101 225.184 257.15 225.392 257.243 225.565C257.339 225.736 257.469 225.867 257.633 225.96C257.801 226.049 257.998 226.094 258.225 226.094C258.465 226.094 258.666 226.044 258.831 225.942C258.998 225.837 259.125 225.685 259.212 225.484C259.299 225.284 259.342 225.037 259.342 224.744V218.34ZM262.867 227.525V218.34H269.056V219.941H264.809V222.13H268.738V223.731H264.809V225.924H269.074V227.525H262.867ZM270.6 227.525V218.34H272.542V222.39H272.663L275.968 218.34H278.296L274.887 222.453L278.336 227.525H276.013L273.497 223.749L272.542 224.915V227.525H270.6ZM278.957 219.941V218.34H286.501V219.941H283.689V227.525H281.769V219.941H278.957ZM287.743 227.525V218.34H293.932V219.941H289.684V222.13H293.613V223.731H289.684V225.924H293.95V227.525H287.743ZM295.126 219.941V218.34H302.669V219.941H299.857V227.525H297.938V219.941H295.126Z" fill="white"/>
</g>
</g>
<defs>
<clipPath id="clip0_109_617">
<rect width="709" height="425.4" fill="white" transform="translate(104 68)"/>
</clipPath>
</defs>
</svg>
