<svg width="25" height="24" viewBox="0 0 25 24" fill="none" xmlns="http://www.w3.org/2000/svg">
<path d="M18.9844 6.54004C20.0889 6.54004 20.9844 5.64461 20.9844 4.54004C20.9844 3.43547 20.0889 2.54004 18.9844 2.54004C17.8798 2.54004 16.9844 3.43547 16.9844 4.54004C16.9844 5.64461 17.8798 6.54004 18.9844 6.54004Z" fill="#222222"/>
<path d="M15.9844 17H13.9844C13.9844 18.65 12.6344 20 10.9844 20C9.33437 20 7.98438 18.65 7.98438 17C7.98438 15.35 9.33437 14 10.9844 14V12C8.22438 12 5.98438 14.24 5.98438 17C5.98438 19.76 8.22438 22 10.9844 22C13.7444 22 15.9844 19.76 15.9844 17ZM18.9844 13.5H17.1244L18.7944 9.83C19.4044 8.5 18.4244 7 16.9444 7H11.7444C10.9344 7 10.2044 7.47 9.87438 8.2L9.20438 10L11.1244 10.53L11.7744 9H13.9844L12.1544 13.1C11.5544 14.43 12.5444 16 14.0044 16H18.9844V21H20.9844V15.5C20.9844 14.4 20.0844 13.5 18.9844 13.5Z" fill="#222222"/>
</svg>
