<svg width="25" height="24" viewBox="0 0 25 24" fill="none" xmlns="http://www.w3.org/2000/svg">
<path d="M17.4844 3C15.7444 3 14.0744 3.81 12.9844 5.09C11.8944 3.81 10.2244 3 8.48438 3C5.40438 3 2.98438 5.42 2.98438 8.5C2.98438 12.28 6.38438 15.36 11.5344 20.04L12.9844 21.35L14.4344 20.03C19.5844 15.36 22.9844 12.28 22.9844 8.5C22.9844 5.42 20.5644 3 17.4844 3ZM13.0844 18.55L12.9844 18.65L12.8844 18.55C8.12437 14.24 4.98438 11.39 4.98438 8.5C4.98438 6.5 6.48438 5 8.48438 5C10.0244 5 11.5244 5.99 12.0544 7.36H13.9244C14.4444 5.99 15.9444 5 17.4844 5C19.4844 5 20.9844 6.5 20.9844 8.5C20.9844 11.39 17.8444 14.24 13.0844 18.55Z" fill="#222222"/>
</svg>
