<svg width="25" height="24" viewBox="0 0 25 24" fill="none" xmlns="http://www.w3.org/2000/svg">
<path d="M14.9844 2H6.98438C5.88437 2 4.98438 2.9 4.98438 4V20C4.98438 21.1 5.88437 22 6.98438 22H18.9844C20.0844 22 20.9844 21.1 20.9844 20V8L14.9844 2ZM18.9844 20H6.98438V4H14.9844V8H18.9844V20ZM12.9844 17C11.8844 17 10.9844 16.1 10.9844 15V9.5C10.9844 9.22 11.2044 9 11.4844 9C11.7644 9 11.9844 9.22 11.9844 9.5V15H13.9844V9.5C13.9844 8.12 12.8644 7 11.4844 7C10.1044 7 8.98438 8.12 8.98438 9.5V15C8.98438 17.21 10.7744 19 12.9844 19C15.1944 19 16.9844 17.21 16.9844 15V11H14.9844V15C14.9844 16.1 14.0844 17 12.9844 17Z" fill="#222222"/>
</svg>
