<svg width="25" height="24" viewBox="0 0 25 24" fill="none" xmlns="http://www.w3.org/2000/svg">
<path d="M13.9844 3C9.01438 3 4.98438 7.03 4.98438 12H1.98438L5.87437 15.89L5.94438 16.03L9.98438 12H6.98438C6.98438 8.13 10.1144 5 13.9844 5C17.8544 5 20.9844 8.13 20.9844 12C20.9844 15.87 17.8544 19 13.9844 19C12.0544 19 10.3044 18.21 9.04438 16.94L7.62437 18.36C9.25437 19.99 11.4944 21 13.9844 21C18.9544 21 22.9844 16.97 22.9844 12C22.9844 7.03 18.9544 3 13.9844 3ZM12.9844 8V13L17.2344 15.52L18.0044 14.24L14.4844 12.15V8H12.9844Z" fill="#222222"/>
</svg>
