<svg width="25" height="17" viewBox="0 0 25 17" fill="none" xmlns="http://www.w3.org/2000/svg">
<path d="M20.9844 15C22.0844 15 22.9744 14.1 22.9744 13L22.9844 2C22.9844 0.9 22.0844 0 20.9844 0H4.98438C3.88438 0 2.98438 0.9 2.98438 2V13C2.98438 14.1 3.88438 15 4.98438 15H0.984375C0.984375 16.1 1.88437 17 2.98438 17H22.9844C24.0844 17 24.9844 16.1 24.9844 15H20.9844ZM4.98438 2H20.9844V13H4.98438V2ZM12.9844 16C12.4344 16 11.9844 15.55 11.9844 15C11.9844 14.45 12.4344 14 12.9844 14C13.5344 14 13.9844 14.45 13.9844 15C13.9844 15.55 13.5344 16 12.9844 16Z" fill="#222222"/>
</svg>
