<svg width="25" height="25" viewBox="0 0 25 25" fill="none" xmlns="http://www.w3.org/2000/svg">
<path d="M12.9844 2.07715C7.46438 2.07715 2.98438 6.55715 2.98438 12.0771C2.98438 17.5971 7.46438 22.0771 12.9844 22.0771C18.5044 22.0771 22.9844 17.5971 22.9844 12.0771C22.9844 6.55715 18.5044 2.07715 12.9844 2.07715ZM7.98438 13.5771C7.15438 13.5771 6.48438 12.9071 6.48438 12.0771C6.48438 11.2471 7.15438 10.5771 7.98438 10.5771C8.81437 10.5771 9.48438 11.2471 9.48438 12.0771C9.48438 12.9071 8.81437 13.5771 7.98438 13.5771ZM12.9844 13.5771C12.1544 13.5771 11.4844 12.9071 11.4844 12.0771C11.4844 11.2471 12.1544 10.5771 12.9844 10.5771C13.8144 10.5771 14.4844 11.2471 14.4844 12.0771C14.4844 12.9071 13.8144 13.5771 12.9844 13.5771ZM17.9844 13.5771C17.1544 13.5771 16.4844 12.9071 16.4844 12.0771C16.4844 11.2471 17.1544 10.5771 17.9844 10.5771C18.8144 10.5771 19.4844 11.2471 19.4844 12.0771C19.4844 12.9071 18.8144 13.5771 17.9844 13.5771Z" fill="#222222"/>
</svg>
