<svg width="25" height="24" viewBox="0 0 25 24" fill="none" xmlns="http://www.w3.org/2000/svg">
<path d="M12.9844 5.9C14.1444 5.9 15.0844 6.84 15.0844 8C15.0844 9.16 14.1444 10.1 12.9844 10.1C11.8244 10.1 10.8844 9.16 10.8844 8C10.8844 6.84 11.8244 5.9 12.9844 5.9ZM12.9844 14.9C15.9544 14.9 19.0844 16.36 19.0844 17V18.1H6.88438V17C6.88438 16.36 10.0144 14.9 12.9844 14.9ZM12.9844 4C10.7744 4 8.98438 5.79 8.98438 8C8.98438 10.21 10.7744 12 12.9844 12C15.1944 12 16.9844 10.21 16.9844 8C16.9844 5.79 15.1944 4 12.9844 4ZM12.9844 13C10.3144 13 4.98438 14.34 4.98438 17V20H20.9844V17C20.9844 14.34 15.6544 13 12.9844 13Z" fill="#222222"/>
</svg>
