<svg width="14" height="22" viewBox="0 0 14 22" fill="none" xmlns="http://www.w3.org/2000/svg">
<path d="M11.4844 0H3.48438C2.10438 0 0.984375 1.12 0.984375 2.5V19.5C0.984375 20.88 2.10438 22 3.48438 22H11.4844C12.8644 22 13.9844 20.88 13.9844 19.5V2.5C13.9844 1.12 12.8644 0 11.4844 0ZM7.48438 21C6.65438 21 5.98438 20.33 5.98438 19.5C5.98438 18.67 6.65438 18 7.48438 18C8.31437 18 8.98438 18.67 8.98438 19.5C8.98438 20.33 8.31437 21 7.48438 21ZM11.9844 17H2.98438V3H11.9844V17Z" fill="#222222"/>
</svg>
