<svg width="25" height="24" viewBox="0 0 25 24" fill="none" xmlns="http://www.w3.org/2000/svg">
<path d="M19.2344 7.6L13.7344 4.42C13.2744 4.15 12.6944 4.15 12.2344 4.42L6.73438 7.6C6.27437 7.87 5.98438 8.36 5.98438 8.9V15.25C5.98438 15.79 6.27437 16.28 6.73438 16.55L12.2344 19.73C12.6944 20 13.2744 20 13.7344 19.73L19.2344 16.55C19.6944 16.28 19.9844 15.79 19.9844 15.25V8.9C19.9844 8.36 19.6944 7.87 19.2344 7.6ZM7.98438 14.96V10.34L11.9844 12.66V17.27L7.98438 14.96ZM12.9844 10.93L8.98438 8.61L12.9844 6.3L16.9844 8.61L12.9844 10.93ZM13.9844 17.27V12.66L17.9844 10.34V14.96L13.9844 17.27ZM7.98438 2H4.48438C3.65438 2 2.98438 2.67 2.98438 3.5V7H4.98438V4H7.98438V2ZM17.9844 2H21.4844C22.3144 2 22.9844 2.67 22.9844 3.5V7H20.9844V4H17.9844V2ZM7.98438 22H4.48438C3.65438 22 2.98438 21.33 2.98438 20.5V17H4.98438V20H7.98438V22ZM17.9844 22H21.4844C22.3144 22 22.9844 21.33 22.9844 20.5V17H20.9844V20H17.9844V22Z" fill="#222222"/>
</svg>
