<svg width="25" height="24" viewBox="0 0 25 24" fill="none" xmlns="http://www.w3.org/2000/svg">
<path d="M12.9844 6.0002C16.7744 6.0002 20.1544 8.1302 21.8044 11.5002C21.2144 12.7202 20.3844 13.7702 19.3944 14.6202L20.8044 16.0302C22.1944 14.8002 23.2944 13.2602 23.9844 11.5002C22.2544 7.1102 17.9844 4.0002 12.9844 4.0002C11.7144 4.0002 10.4944 4.2002 9.34437 4.5702L10.9944 6.2202C11.6444 6.0902 12.3044 6.0002 12.9844 6.0002ZM11.9144 7.14019L13.9844 9.2102C14.5544 9.4602 15.0144 9.9202 15.2644 10.4902L17.3344 12.5602C17.4144 12.2202 17.4744 11.8602 17.4744 11.4902C17.4844 9.0102 15.4644 7.0002 12.9844 7.0002C12.6144 7.0002 12.2644 7.05019 11.9144 7.14019ZM2.99437 3.8702L5.67438 6.5502C4.04437 7.8302 2.75437 9.5302 1.98438 11.5002C3.71438 15.8902 7.98438 19.0002 12.9844 19.0002C14.5044 19.0002 15.9644 18.7102 17.3044 18.1802L20.7244 21.6002L22.1344 20.1902L4.40438 2.4502L2.99437 3.8702ZM10.4944 11.3702L13.1044 13.9802C13.0644 13.9902 13.0244 14.0002 12.9844 14.0002C11.6044 14.0002 10.4844 12.8802 10.4844 11.5002C10.4844 11.4502 10.4944 11.4202 10.4944 11.3702ZM7.09438 7.97019L8.84438 9.7202C8.61438 10.2702 8.48438 10.8702 8.48438 11.5002C8.48438 13.9802 10.5044 16.0002 12.9844 16.0002C13.6144 16.0002 14.2144 15.8702 14.7544 15.6402L15.7344 16.6202C14.8544 16.8602 13.9344 17.0002 12.9844 17.0002C9.19438 17.0002 5.81437 14.8702 4.16438 11.5002C4.86438 10.0702 5.88438 8.89019 7.09438 7.97019Z" fill="#222222"/>
</svg>
