<svg width="469" height="151" viewBox="0 0 469 151" fill="none" xmlns="http://www.w3.org/2000/svg">
<path d="M0 64.6333V2.72583H9.14708V30.5695H9.31173L37.7226 2.72583H49.0649L15.6964 34.8687V30.5695L51.3334 64.6333H39.6617L9.27514 35.7468H9.14708V64.6333H0Z" fill="white"/>
<path d="M73.0303 65.4199C69.4136 65.5082 65.8468 64.5626 62.749 62.6941C59.7453 60.7948 57.3759 58.0433 55.9435 54.791C54.2455 50.9202 53.421 46.7228 53.5287 42.4973C53.4137 38.2712 54.2385 34.0722 55.9435 30.2036C57.406 26.9849 59.7698 24.259 62.749 22.3554C65.8401 20.4674 69.4092 19.5085 73.0303 19.593C76.6122 19.5061 80.1353 20.5145 83.1287 22.4835C85.9345 24.3303 87.9654 27.1423 88.8365 30.3866H87.812L88.6901 20.3797H97.3066C97.1237 22.2091 96.9591 24.0385 96.8127 25.7764C96.6663 27.5144 96.5932 29.3072 96.5932 31.0086V64.6332H87.812V54.791H88.7816C87.8984 58.0059 85.8508 60.7773 83.0372 62.566C80.0608 64.4938 76.5759 65.4877 73.0303 65.4199ZM75.2256 58.4864C76.9558 58.5415 78.6763 58.2067 80.2597 57.5069C81.843 56.807 83.2487 55.76 84.3727 54.4434C86.6655 51.7602 87.812 47.7782 87.812 42.4973C87.812 37.2286 86.6594 33.3502 84.3544 30.6061C83.2243 29.3005 81.8161 28.2646 80.2332 27.5744C78.6504 26.8843 76.933 26.5575 75.2073 26.618C73.4637 26.5435 71.7258 26.8634 70.123 27.5539C68.5202 28.2444 67.094 29.2877 65.9505 30.6061C63.6271 33.277 62.4746 37.2286 62.4746 42.4973C62.4746 47.766 63.6088 51.7541 65.8956 54.4434C67.0415 55.7817 68.4773 56.8413 70.0939 57.5418C71.7105 58.2424 73.4655 58.5654 75.2256 58.4864Z" fill="white"/>
<path d="M109.381 64.6333V31.3562C109.381 29.5268 109.381 27.6974 109.253 25.868C109.125 24.0385 109.033 22.2091 108.85 20.3797H117.467L118.436 31.8501H117.083C117.546 29.3675 118.565 27.0221 120.065 24.9898C121.378 23.204 123.13 21.7865 125.15 20.8736C127.158 19.9967 129.326 19.548 131.517 19.5565C132.967 19.5235 134.414 19.6959 135.816 20.0687V27.9718C134.994 27.6091 134.126 27.3628 133.236 27.24C132.344 27.1362 131.446 27.0874 130.547 27.0937C128.233 27.0286 125.948 27.6251 123.961 28.8133C122.176 29.9241 120.747 31.5242 119.845 33.4234C118.898 35.3654 118.415 37.5012 118.436 39.6618V64.6333H109.381Z" fill="white"/>
<path d="M162.251 65.42C160.25 65.5755 158.24 65.309 156.349 64.6377C154.458 63.9664 152.729 62.9054 151.274 61.5233C148.823 58.9073 147.616 55.0106 147.616 49.7968V27.2218H139.036V20.3797H147.634V8.68978L156.507 6.32983V20.3797H168.8V27.2218H156.543V49.0101C156.339 51.4915 156.984 53.9687 158.373 56.0351C159.005 56.7492 159.791 57.3098 160.672 57.6743C161.554 58.0389 162.506 58.1978 163.458 58.1389C164.449 58.1495 165.437 58.0451 166.404 57.8279C167.197 57.6412 167.974 57.3903 168.727 57.0778V64.2857C167.733 64.6646 166.704 64.9405 165.654 65.109C164.532 65.32 163.392 65.4241 162.251 65.42Z" fill="white"/>
<path d="M190.515 64.6333L171.544 20.3797H181.112L196.04 57.3522H193.497L208.553 20.3797H217.701L198.601 64.6333H190.515Z" fill="white"/>
<path d="M244.355 65.4199C240.077 65.5469 235.834 64.6103 232.007 62.6941C228.64 60.9369 225.884 58.2006 224.103 54.8459C222.174 51.0548 221.224 46.841 221.341 42.5888C221.247 38.3961 222.163 34.2423 224.012 30.4781C225.689 27.1482 228.278 24.3631 231.476 22.4469C234.853 20.4968 238.7 19.5097 242.599 19.593C246.26 19.4659 249.882 20.3793 253.045 22.2274C255.867 24.007 258.096 26.5862 259.448 29.6365C260.983 33.2221 261.719 37.0986 261.607 40.9972V43.7413H228.275V38.6373H255.588L254.088 39.7898C254.315 36.1403 253.282 32.5236 251.161 29.5451C250.127 28.3182 248.821 27.3489 247.348 26.7139C245.875 26.0788 244.274 25.7955 242.672 25.8862C240.242 25.7679 237.836 26.4231 235.802 27.7577C233.767 29.0922 232.208 31.0373 231.348 33.3137C230.294 36.0418 229.79 38.9516 229.866 41.8753V42.8266C229.866 48.0466 231.135 51.9676 233.671 54.5898C235.11 55.9605 236.816 57.019 238.683 57.699C240.55 58.379 242.537 58.6658 244.52 58.5413C247.002 58.5677 249.472 58.1972 251.837 57.4437C254.204 56.6471 256.396 55.4051 258.295 53.7848L261.186 59.8402C259.008 61.7243 256.468 63.1436 253.722 64.0113C250.697 64.9862 247.533 65.462 244.355 65.4199Z" fill="white"/>
<path d="M271.65 64.6332V31.3561C271.65 29.5267 271.65 27.6973 271.522 25.8679C271.394 24.0385 271.302 22.209 271.138 20.3796H279.736L280.706 31.7952H279.297C279.76 29.3126 280.78 26.9671 282.279 24.9349C283.624 23.1792 285.393 21.7943 287.42 20.9102C289.427 20.0332 291.595 19.5846 293.786 19.593C295.236 19.5567 296.684 19.7292 298.085 20.1052L297.994 28.0083C297.172 27.6456 296.304 27.3993 295.414 27.2765C294.522 27.1728 293.623 27.1239 292.725 27.1302C290.411 27.0681 288.127 27.6645 286.139 28.8498C284.354 29.9606 282.925 31.5607 282.023 33.46C281.084 35.405 280.602 37.5387 280.614 39.6983V64.6332H271.65Z" fill="white"/>
<path d="M304.945 64.6333V0H313.8V39.6983H313.983L333.301 20.3797H344.278L320.916 43.6499L321.008 39.6983L346.217 64.6333H334.966L313.983 44.345H313.8V64.6333H304.945Z" fill="white"/>
<path d="M371.152 65.4199C366.874 65.5454 362.631 64.6089 358.803 62.6941C355.436 60.9369 352.681 58.2006 350.9 54.8459C348.976 51.0529 348.027 46.8405 348.138 42.5888C348.041 38.3937 348.964 34.2378 350.827 30.4781C352.493 27.1405 355.084 24.3527 358.291 22.4469C361.661 20.4948 365.502 19.5074 369.396 19.593C373.057 19.4659 376.679 20.3793 379.842 22.2274C382.668 24.0019 384.898 26.5826 386.245 29.6365C387.782 33.1967 388.531 37.0473 388.44 40.924V43.7413H355.071V38.6373H382.348L380.866 39.7898C381.088 36.1382 380.048 32.5212 377.921 29.5451C376.891 28.3186 375.589 27.3493 374.118 26.7141C372.648 26.079 371.05 25.7955 369.451 25.8862C367.017 25.764 364.608 26.4173 362.569 27.7521C360.531 29.0869 358.969 31.0343 358.108 33.3137C357.054 36.0417 356.55 38.9516 356.626 41.8753V42.8266C356.626 48.0405 357.889 51.9737 360.45 54.5898C361.899 55.9637 363.619 57.0201 365.499 57.691C367.38 58.362 369.38 58.633 371.371 58.4864C373.854 58.5129 376.324 58.1423 378.689 57.3888C381.057 56.5963 383.25 55.354 385.147 53.7299L388.056 59.7853C385.858 61.6846 383.292 63.1107 380.519 63.9747C377.495 64.9589 374.332 65.4469 371.152 65.4199Z" fill="white"/>
<path d="M415.753 65.42C410.96 65.42 407.32 64.1211 404.868 61.5233C402.417 58.9255 401.209 55.0106 401.209 49.7968V27.2218H392.611V20.3797H401.209V8.68978L410.082 6.32983V20.3797H422.376V27.2218H410.082V49.0101C409.877 51.4915 410.522 53.9687 411.911 56.0351C412.547 56.7495 413.337 57.3102 414.221 57.6746C415.105 58.0391 416.061 58.1978 417.015 58.1389C418 58.1481 418.982 58.0437 419.943 57.8279C420.742 57.6411 421.525 57.3903 422.284 57.0778V64.2857C421.291 64.6646 420.261 64.9405 419.211 65.109C418.071 65.3231 416.913 65.4273 415.753 65.42Z" fill="white"/>
<path d="M445.609 65.42C442.162 65.4584 438.727 64.9837 435.419 64.0113C432.607 63.2248 429.982 61.881 427.699 60.0598L430.425 54.0044C432.589 55.6359 435.022 56.8743 437.615 57.6632C440.232 58.4814 442.959 58.8947 445.701 58.8889C448.258 59.0722 450.81 58.4723 453.018 57.1693C453.793 56.6679 454.429 55.9793 454.867 55.1671C455.305 54.3549 455.531 53.4454 455.525 52.5226C455.547 51.838 455.421 51.1567 455.156 50.5252C454.891 49.8938 454.492 49.327 453.988 48.8637C452.52 47.7295 450.778 47.0037 448.939 46.7599L440.505 45.0951C437.309 44.5562 434.344 43.0862 431.98 40.8692C431.016 39.853 430.264 38.6551 429.768 37.3454C429.272 36.0357 429.041 34.6403 429.09 33.2405C429.048 30.7295 429.804 28.27 431.248 26.2156C432.806 24.0628 434.935 22.3897 437.395 21.3859C440.35 20.1314 443.534 19.5082 446.743 19.5565C449.847 19.5248 452.936 19.9943 455.89 20.9469C458.473 21.7946 460.843 23.1857 462.842 25.0265L460.025 30.9172C458.194 29.3872 456.115 28.1808 453.878 27.3498C451.661 26.5188 449.313 26.0913 446.945 26.0875C444.37 25.872 441.797 26.5153 439.627 27.9169C438.864 28.4695 438.247 29.1997 437.829 30.0445C437.411 30.8892 437.206 31.8229 437.23 32.7649C437.218 33.4399 437.34 34.1107 437.588 34.7386C437.836 35.3665 438.206 35.9392 438.676 36.4237C439.994 37.5536 441.582 38.3226 443.286 38.6556L451.719 40.3204C455.02 40.8246 458.121 42.2228 460.684 44.3634C461.702 45.3417 462.499 46.5275 463.02 47.8405C463.541 49.1535 463.773 50.563 463.702 51.9738C463.751 54.5566 462.948 57.0835 461.415 59.1634C459.797 61.2863 457.608 62.9045 455.104 63.8284C452.064 64.9392 448.845 65.4788 445.609 65.42Z" fill="white"/>
<path d="M0.658592 134.389V82.7994H18.5137C23.5944 82.648 28.6412 83.6749 33.2588 85.7996C37.152 87.6795 40.3529 90.7396 42.4059 94.5442C44.6006 98.8809 45.6701 103.7 45.5159 108.558C45.6655 113.403 44.5961 118.209 42.4059 122.534C40.3672 126.368 37.1644 129.455 33.2588 131.352C28.6499 133.507 23.5989 134.547 18.5137 134.389H0.658592ZM8.26896 128.023H18.0746C24.7215 128.023 29.6609 126.413 32.8929 123.193C36.1493 119.973 37.7592 115.107 37.7592 108.558C37.7592 102.008 36.1493 97.1603 32.9295 94.0503C29.7097 90.9403 24.752 89.2572 18.1112 89.2572H8.26896V128.023Z" fill="white"/>
<path d="M72.2254 135.048C68.6638 135.148 65.1324 134.369 61.944 132.779C59.1342 131.316 56.8369 129.031 55.3581 126.23C53.7474 123.067 52.9549 119.551 53.0531 116.003C52.9779 112.507 53.7434 109.044 55.285 105.905C56.6849 103.131 58.8414 100.809 61.505 99.2092C64.3175 97.5909 67.5175 96.7688 70.7618 96.831C73.814 96.722 76.8342 97.4834 79.4698 99.0263C81.8296 100.506 83.6907 102.66 84.8117 105.21C86.0944 108.175 86.7185 111.383 86.6412 114.613V116.955H58.834V112.729H81.592L80.348 113.68C80.541 110.64 79.6748 107.628 77.8966 105.155C77.0367 104.134 75.9507 103.329 74.7249 102.801C73.499 102.274 72.1671 102.04 70.835 102.118C68.8093 102.015 66.8032 102.558 65.1065 103.67C63.4097 104.781 62.1101 106.403 61.3952 108.301C60.5149 110.575 60.0921 112.999 60.1512 115.436V116.168C59.8815 119.728 61.0251 123.251 63.3344 125.974C64.5322 127.116 65.9534 127.998 67.5087 128.565C69.064 129.132 70.7197 129.371 72.3717 129.267C74.4203 129.29 76.459 128.981 78.4088 128.352C80.3829 127.701 82.2102 126.669 83.7873 125.315L86.2021 130.364C84.3926 131.942 82.2743 133.126 79.9821 133.84C77.4782 134.657 74.859 135.064 72.2254 135.048Z" fill="white"/>
<path d="M107.789 135.048C104.917 135.078 102.057 134.683 99.3007 133.877C96.9577 133.243 94.7672 132.141 92.8612 130.639L95.1296 125.535C96.9332 126.904 98.9646 127.945 101.13 128.608C103.308 129.294 105.579 129.64 107.862 129.632C109.984 129.777 112.101 129.28 113.936 128.205C114.585 127.784 115.115 127.203 115.474 126.517C115.833 125.831 116.009 125.064 115.985 124.291C116.007 123.716 115.904 123.144 115.682 122.613C115.461 122.082 115.128 121.606 114.704 121.217C113.484 120.253 112.034 119.623 110.497 119.388L103.472 117.997C100.811 117.552 98.3418 116.33 96.3736 114.485C95.565 113.64 94.9345 112.641 94.5197 111.547C94.1048 110.453 93.9141 109.287 93.9588 108.119C93.9421 106.024 94.5818 103.977 95.7882 102.264C97.0981 100.482 98.869 99.0906 100.911 98.2397C103.38 97.2207 106.033 96.7225 108.704 96.7761C111.287 96.7581 113.856 97.1534 116.314 97.947C118.479 98.652 120.464 99.8193 122.132 101.368L119.79 106.271C118.265 104.997 116.532 103.995 114.668 103.307C112.819 102.615 110.861 102.256 108.887 102.246C106.749 102.084 104.617 102.624 102.813 103.783C102.185 104.246 101.678 104.854 101.334 105.554C100.99 106.255 100.82 107.027 100.837 107.807C100.815 108.381 100.91 108.953 101.118 109.488C101.326 110.023 101.641 110.509 102.045 110.918C103.142 111.856 104.467 112.487 105.887 112.747L112.912 114.137C115.66 114.558 118.241 115.722 120.376 117.503C121.213 118.316 121.867 119.298 122.296 120.383C122.725 121.467 122.918 122.631 122.864 123.797C122.937 125.944 122.293 128.056 121.034 129.797C119.689 131.572 117.859 132.919 115.765 133.675C113.217 134.633 110.511 135.098 107.789 135.048Z" fill="white"/>
<path d="M130.986 89.8244V82.1409H139.548V89.8244H130.986ZM131.572 134.389V97.508H138.889V134.389H131.572Z" fill="white"/>
<path d="M166.477 150.762C163.388 150.816 160.308 150.428 157.33 149.61C154.7 148.886 152.222 147.696 150.012 146.097L151.842 140.609C153.243 141.574 154.739 142.396 156.305 143.06C157.787 143.682 159.333 144.136 160.915 144.414C162.558 144.709 164.223 144.856 165.891 144.853C167.326 144.964 168.769 144.784 170.133 144.325C171.497 143.866 172.755 143.138 173.831 142.182C174.775 141.143 175.498 139.923 175.957 138.596C176.416 137.269 176.602 135.863 176.502 134.462V124.583H177.234C176.505 127.267 174.794 129.578 172.441 131.059C169.949 132.673 167.03 133.501 164.062 133.438C160.996 133.523 157.968 132.75 155.317 131.206C152.833 129.687 150.849 127.474 149.61 124.839C148.282 121.76 147.597 118.442 147.597 115.089C147.597 111.735 148.282 108.417 149.61 105.338C150.865 102.724 152.847 100.527 155.317 99.008C157.972 97.474 160.997 96.7017 164.062 96.7762C167.03 96.7094 169.95 97.5381 172.441 99.1544C174.757 100.659 176.437 102.965 177.161 105.631L176.502 105.045L177.161 97.4347H184.332C184.149 98.9471 184.003 100.447 183.893 101.935C183.893 103.435 183.747 104.88 183.747 106.289V133.657C183.747 139.145 182.283 143.463 179.319 146.463C176.356 149.463 172.111 150.762 166.477 150.762ZM165.965 127.712C167.415 127.772 168.861 127.508 170.197 126.938C171.533 126.369 172.724 125.508 173.685 124.419C175.765 121.785 176.795 118.474 176.575 115.125C176.78 111.823 175.749 108.563 173.685 105.978C172.712 104.909 171.516 104.067 170.182 103.511C168.848 102.954 167.409 102.698 165.965 102.758C164.498 102.69 163.034 102.942 161.675 103.499C160.317 104.055 159.096 104.901 158.098 105.978C156.041 108.567 155.012 111.824 155.208 115.125C154.996 118.473 156.025 121.781 158.098 124.419C159.074 125.51 160.278 126.372 161.625 126.944C162.972 127.517 164.429 127.785 165.891 127.73L165.965 127.712Z" fill="white"/>
<path d="M194.577 134.389V106.362C194.577 104.954 194.577 103.508 194.394 102.008C194.211 100.508 194.138 99.0262 193.991 97.5078H201.236L201.894 105.265H201.016C202.03 102.675 203.852 100.481 206.212 99.008C208.665 97.5449 211.479 96.7971 214.334 96.8492C216.14 96.7289 217.951 96.9928 219.648 97.6235C221.344 98.2542 222.888 99.2373 224.177 100.508C226.409 102.905 227.506 106.618 227.506 111.631V134.389H220.189V111.997C220.351 109.499 219.611 107.025 218.103 105.027C217.341 104.25 216.42 103.646 215.404 103.258C214.387 102.869 213.298 102.705 212.212 102.777C210.836 102.714 209.461 102.939 208.176 103.437C206.891 103.934 205.724 104.694 204.748 105.667C202.826 107.794 201.826 110.597 201.968 113.46V134.389H194.577Z" fill="white"/>
<path d="M250.63 135.048C247.758 135.078 244.898 134.683 242.142 133.877C239.794 133.227 237.603 132.106 235.702 130.584L237.97 125.535C239.774 126.904 241.805 127.945 243.971 128.608C246.149 129.294 248.42 129.64 250.703 129.632C252.825 129.777 254.941 129.28 256.777 128.206C257.426 127.784 257.956 127.203 258.315 126.517C258.674 125.831 258.85 125.064 258.826 124.291C258.848 123.716 258.744 123.144 258.523 122.613C258.302 122.082 257.968 121.606 257.545 121.217C256.325 120.253 254.875 119.623 253.338 119.388L246.313 117.997C243.652 117.552 241.183 116.33 239.214 114.485C238.406 113.64 237.775 112.641 237.36 111.547C236.946 110.453 236.755 109.287 236.8 108.119C236.783 106.024 237.423 103.977 238.629 102.264C239.939 100.482 241.71 99.0907 243.751 98.2397C246.22 97.2192 248.874 96.7209 251.545 96.7762C254.128 96.7582 256.697 97.1534 259.155 97.947C261.328 98.631 263.325 99.7796 265.009 101.313L262.668 106.216C261.142 104.942 259.41 103.94 257.545 103.252C255.696 102.56 253.739 102.201 251.764 102.191C249.626 102.03 247.494 102.569 245.691 103.728C245.063 104.191 244.555 104.799 244.212 105.499C243.868 106.2 243.697 106.973 243.715 107.753C243.692 108.326 243.788 108.898 243.996 109.433C244.203 109.968 244.519 110.455 244.922 110.863C246.019 111.801 247.344 112.432 248.764 112.692L255.789 114.082C258.537 114.503 261.118 115.667 263.253 117.449C264.09 118.261 264.745 119.243 265.174 120.328C265.602 121.413 265.796 122.576 265.741 123.742C265.814 125.89 265.171 128.001 263.912 129.742C262.567 131.517 260.737 132.864 258.643 133.621C256.087 134.601 253.367 135.086 250.63 135.048Z" fill="white"/>
<path d="M272.583 151L270.754 145C272.729 144.599 274.655 143.985 276.498 143.17C277.947 142.551 279.255 141.642 280.34 140.499C281.457 139.261 282.349 137.837 282.974 136.291L284.804 131.974L284.657 134.974L268.631 97.4347H276.535L288.975 128.169H286.999L299.439 97.4347H307.049L290.145 136.95C289.231 139.12 288.077 141.182 286.706 143.097C285.605 144.635 284.272 145.992 282.755 147.122C281.327 148.181 279.748 149.02 278.071 149.61C276.283 150.223 274.448 150.688 272.583 151Z" fill="white"/>
<path d="M324.831 135.048C321.959 135.079 319.099 134.685 316.343 133.877C313.998 133.247 311.807 132.145 309.903 130.639L312.172 125.589C313.975 126.959 316.007 128 318.172 128.663C320.35 129.349 322.621 129.695 324.904 129.687C327.026 129.83 329.142 129.333 330.978 128.26C331.622 127.826 332.143 127.231 332.489 126.536C332.835 125.84 332.995 125.067 332.954 124.291C332.976 123.716 332.872 123.144 332.651 122.613C332.43 122.082 332.096 121.606 331.673 121.217C330.453 120.253 329.003 119.623 327.466 119.388L320.441 117.997C317.779 117.556 315.308 116.333 313.342 114.485C312.556 113.643 311.944 112.653 311.542 111.573C311.14 110.492 310.956 109.343 311.001 108.192C310.984 106.097 311.624 104.05 312.83 102.338C314.136 100.551 315.908 99.159 317.953 98.3129C320.421 97.2909 323.075 96.7925 325.746 96.8493C328.329 96.8326 330.898 97.2278 333.356 98.0202C335.514 98.7036 337.499 99.8456 339.174 101.368L336.832 106.271C335.304 105.001 333.572 103.999 331.71 103.307C329.861 102.615 327.903 102.256 325.929 102.246C323.791 102.084 321.659 102.624 319.855 103.783C319.227 104.246 318.72 104.854 318.376 105.554C318.032 106.255 317.862 107.027 317.879 107.808C317.857 108.381 317.952 108.953 318.16 109.488C318.368 110.023 318.683 110.51 319.087 110.918C320.184 111.856 321.509 112.487 322.929 112.747L329.954 114.137C332.7 114.565 335.279 115.729 337.418 117.503C338.254 118.316 338.909 119.298 339.338 120.383C339.767 121.468 339.96 122.631 339.906 123.797C339.971 125.943 339.328 128.052 338.076 129.797C336.731 131.572 334.901 132.919 332.807 133.675C330.258 134.629 327.552 135.095 324.831 135.048Z" fill="white"/>
<path d="M362.59 135.048C360.922 135.179 359.245 134.957 357.669 134.396C356.093 133.834 354.653 132.947 353.443 131.791C351.196 129.054 350.095 125.553 350.37 122.022V103.197H343.198V97.5079H350.37V87.7754L357.687 85.7997V97.5079H367.932V103.197H357.687V121.345C357.499 123.406 358.015 125.47 359.151 127.199C359.671 127.809 360.324 128.291 361.06 128.608C361.796 128.925 362.595 129.069 363.395 129.029C364.22 129.046 365.043 128.96 365.847 128.773C366.511 128.626 367.16 128.418 367.786 128.151V134.151C366.959 134.472 366.1 134.705 365.225 134.846C364.354 134.991 363.473 135.058 362.59 135.048Z" fill="white"/>
<path d="M391.495 135.048C387.933 135.151 384.401 134.371 381.214 132.779C378.404 131.316 376.107 129.031 374.628 126.23C373.017 123.067 372.225 119.551 372.323 116.003C372.248 112.507 373.013 109.044 374.555 105.905C375.955 103.131 378.111 100.809 380.775 99.2093C383.586 97.5883 386.787 96.766 390.032 96.831C393.083 96.725 396.103 97.4862 398.74 99.0263C401.094 100.512 402.954 102.664 404.081 105.21C405.364 108.175 405.988 111.383 405.911 114.613V116.955H378.104V112.729H400.862L399.618 113.68C399.802 110.641 398.936 107.632 397.166 105.155C396.306 104.134 395.22 103.329 393.995 102.801C392.769 102.274 391.437 102.04 390.105 102.118C388.048 102.059 386.021 102.62 384.287 103.728C382.639 104.853 381.365 106.446 380.628 108.301C379.748 110.575 379.325 112.999 379.384 115.436V116.168C379.115 119.728 380.258 123.251 382.568 125.974C383.765 127.116 385.187 127.998 386.742 128.565C388.297 129.132 389.953 129.371 391.605 129.267C393.653 129.287 395.692 128.978 397.642 128.352C399.616 127.701 401.443 126.669 403.02 125.315L405.435 130.364C403.623 131.939 401.506 133.122 399.215 133.84C396.723 134.652 394.116 135.059 391.495 135.048Z" fill="white"/>
<path d="M414.399 134.389V106.362C414.399 104.954 414.399 103.508 414.216 102.008C414.033 100.508 413.96 99.0263 413.814 97.5079H420.985L421.644 105.265H420.766C421.662 102.755 423.31 100.583 425.486 99.0446C427.746 97.5388 430.418 96.7717 433.133 96.8493C435.777 96.7417 438.385 97.4996 440.56 99.008C442.624 100.68 444.035 103.024 444.548 105.63H443.377C444.299 103.013 446.045 100.766 448.353 99.2275C450.757 97.6295 453.59 96.8 456.476 96.8493C458.176 96.7452 459.878 97.0194 461.46 97.6521C463.042 98.2848 464.463 99.2601 465.623 100.508C467.672 102.947 468.696 106.655 468.696 111.631V134.389H461.379V111.924C461.579 109.479 461.003 107.033 459.732 104.935C459.082 104.181 458.262 103.593 457.339 103.217C456.417 102.842 455.419 102.691 454.427 102.777C453.157 102.724 451.891 102.96 450.725 103.467C449.559 103.974 448.523 104.739 447.695 105.704C445.937 107.951 445.054 110.758 445.207 113.607V134.389H437.889V111.924C438.089 109.479 437.513 107.033 436.243 104.935C435.592 104.181 434.772 103.593 433.85 103.217C432.927 102.842 431.929 102.691 430.937 102.777C429.677 102.719 428.42 102.953 427.265 103.461C426.11 103.969 425.088 104.736 424.278 105.704C422.567 107.971 421.712 110.77 421.863 113.607V134.389H414.399Z" fill="white"/>
</svg>
