<svg width="25" height="24" viewBox="0 0 25 24" fill="none" xmlns="http://www.w3.org/2000/svg">
<path d="M17.4844 6V17.5C17.4844 19.71 15.6944 21.5 13.4844 21.5C11.2744 21.5 9.48438 19.71 9.48438 17.5V5C9.48438 3.62 10.6044 2.5 11.9844 2.5C13.3644 2.5 14.4844 3.62 14.4844 5V15.5C14.4844 16.05 14.0344 16.5 13.4844 16.5C12.9344 16.5 12.4844 16.05 12.4844 15.5V6H10.9844V15.5C10.9844 16.88 12.1044 18 13.4844 18C14.8644 18 15.9844 16.88 15.9844 15.5V5C15.9844 2.79 14.1944 1 11.9844 1C9.77437 1 7.98438 2.79 7.98438 5V17.5C7.98438 20.54 10.4444 23 13.4844 23C16.5244 23 18.9844 20.54 18.9844 17.5V6H17.4844Z" fill="#222222"/>
</svg>
