<svg width="25" height="24" viewBox="0 0 25 24" fill="none" xmlns="http://www.w3.org/2000/svg">
<path d="M12.9844 7V3H2.98438V21H22.9844V7H12.9844ZM6.98438 19H4.98438V17H6.98438V19ZM6.98438 15H4.98438V13H6.98438V15ZM6.98438 11H4.98438V9H6.98438V11ZM6.98438 7H4.98438V5H6.98438V7ZM10.9844 19H8.98438V17H10.9844V19ZM10.9844 15H8.98438V13H10.9844V15ZM10.9844 11H8.98438V9H10.9844V11ZM10.9844 7H8.98438V5H10.9844V7ZM20.9844 19H12.9844V17H14.9844V15H12.9844V13H14.9844V11H12.9844V9H20.9844V19ZM18.9844 11H16.9844V13H18.9844V11ZM18.9844 15H16.9844V17H18.9844V15Z" fill="#222222"/>
</svg>
