<svg width="25" height="25" viewBox="0 0 25 25" fill="none" xmlns="http://www.w3.org/2000/svg">
<path d="M12.9844 2.07715C7.45437 2.07715 2.98438 6.54715 2.98438 12.0771C2.98438 17.6071 7.45437 22.0771 12.9844 22.0771C18.5144 22.0771 22.9844 17.6071 22.9844 12.0771C22.9844 6.54715 18.5144 2.07715 12.9844 2.07715ZM12.9844 20.0771C8.57438 20.0771 4.98438 16.4871 4.98438 12.0771C4.98438 7.66715 8.57438 4.07715 12.9844 4.07715C17.3944 4.07715 20.9844 7.66715 20.9844 12.0771C20.9844 16.4871 17.3944 20.0771 12.9844 20.0771ZM16.5744 7.07715L12.9844 10.6671L9.39437 7.07715L7.98438 8.48715L11.5744 12.0771L7.98438 15.6671L9.39437 17.0771L12.9844 13.4871L16.5744 17.0771L17.9844 15.6671L14.3944 12.0771L17.9844 8.48715L16.5744 7.07715Z" fill="#222222"/>
</svg>
