<svg width="25" height="24" viewBox="0 0 25 24" fill="none" xmlns="http://www.w3.org/2000/svg">
<path d="M16.5344 13C17.2844 13 17.9444 12.59 18.2844 11.97L21.8644 5.48C22.2344 4.82 21.7544 4 20.9944 4H6.19438L5.25437 2H1.98438V4H3.98438L7.58437 11.59L6.23438 14.03C5.50437 15.37 6.46438 17 7.98438 17H19.9844V15H7.98438L9.08438 13H16.5344ZM7.14437 6H19.2944L16.5344 11H9.51437L7.14437 6ZM7.98438 18C6.88438 18 5.99438 18.9 5.99438 20C5.99438 21.1 6.88438 22 7.98438 22C9.08437 22 9.98438 21.1 9.98438 20C9.98438 18.9 9.08437 18 7.98438 18ZM17.9844 18C16.8844 18 15.9944 18.9 15.9944 20C15.9944 21.1 16.8844 22 17.9844 22C19.0844 22 19.9844 21.1 19.9844 20C19.9844 18.9 19.0844 18 17.9844 18Z" fill="#222222"/>
</svg>
