<svg width="20" height="24" viewBox="0 0 20 24" fill="none" xmlns="http://www.w3.org/2000/svg">
<path d="M17.4844 0H3.48438C2.10438 0 0.984375 1.12 0.984375 2.5V21.5C0.984375 22.88 2.10438 24 3.48438 24H17.4844C18.8644 24 19.9844 22.88 19.9844 21.5V2.5C19.9844 1.12 18.8644 0 17.4844 0ZM10.4844 23C9.65438 23 8.98438 22.33 8.98438 21.5C8.98438 20.67 9.65438 20 10.4844 20C11.3144 20 11.9844 20.67 11.9844 21.5C11.9844 22.33 11.3144 23 10.4844 23ZM17.9844 19H2.98438V3H17.9844V19Z" fill="#222222"/>
</svg>
