<svg width="25" height="24" viewBox="0 0 25 24" fill="none" xmlns="http://www.w3.org/2000/svg">
<path d="M12.9844 6C16.7744 6 20.1544 8.13 21.8044 11.5C20.1544 14.87 16.7744 17 12.9844 17C9.19438 17 5.81437 14.87 4.16438 11.5C5.81437 8.13 9.19438 6 12.9844 6ZM12.9844 4C7.98438 4 3.71438 7.11 1.98438 11.5C3.71438 15.89 7.98438 19 12.9844 19C17.9844 19 22.2544 15.89 23.9844 11.5C22.2544 7.11 17.9844 4 12.9844 4ZM12.9844 9C14.3644 9 15.4844 10.12 15.4844 11.5C15.4844 12.88 14.3644 14 12.9844 14C11.6044 14 10.4844 12.88 10.4844 11.5C10.4844 10.12 11.6044 9 12.9844 9ZM12.9844 7C10.5044 7 8.48438 9.02 8.48438 11.5C8.48438 13.98 10.5044 16 12.9844 16C15.4644 16 17.4844 13.98 17.4844 11.5C17.4844 9.02 15.4644 7 12.9844 7Z" fill="#222222"/>
</svg>
