<svg width="99" height="33" viewBox="0 0 99 33" fill="none" xmlns="http://www.w3.org/2000/svg">
<path d="M21.0395 0.147461H2.07017C1.13815 0.147461 0.370605 0.912545 0.370605 1.84158V13.4271C1.85087 12.2795 3.7149 10.7493 7.0592 11.5691C9.9649 12.2795 10.568 14.5201 15.1732 17.034C17.9693 18.5641 20.6009 17.3619 22.739 16.1596V1.84158C22.739 0.912545 21.9715 0.147461 21.0395 0.147461Z" fill="#156630"/>
<path d="M16.6535 22.1713C15.7215 22.062 14.9539 21.7341 14.2412 21.2422C12.6513 20.2585 11.1162 18.6737 7.82675 16.9796C5.24999 15.7227 2.67324 16.7064 0.370605 18.0179V30.9697C0.370605 31.8988 1.13815 32.6638 2.07017 32.6638H20.9846C21.9167 32.6638 22.6842 31.8988 22.6842 30.9697V20.3678C20.7105 21.5155 18.7917 22.4991 16.6535 22.1713Z" fill="#175092"/>
<path d="M15.1732 16.9797C10.6228 14.4659 9.9649 12.2253 7.0592 11.5148C3.7149 10.6951 1.85087 12.2799 0.370605 13.3729V15.7228V17.9634C2.67324 16.6518 5.24999 15.6135 7.82675 16.9251C11.1162 18.6192 12.6513 20.204 14.2412 21.1877C14.9539 21.6249 15.7215 21.9528 16.6535 22.1167C18.7917 22.4446 20.7105 21.5156 22.739 20.368V18.2913V16.0507C20.6009 17.3623 17.9693 18.5645 15.1732 16.9797Z" fill="white"/>
<path d="M28.7698 26.8162V16.105H30.0856V26.8162H28.7698ZM31.5658 21.1327L35.8421 26.8162H34.1974L30.0856 21.1327L34.1974 16.105H35.8421L31.5658 21.1327Z" fill="#222222"/>
<path d="M42.9144 27.0894C42.3662 26.9254 41.9824 26.4882 41.8728 25.9418C41.1052 26.7068 40.5022 26.9801 39.625 26.9801C37.7061 26.9801 37.103 25.8325 37.103 24.7395C37.103 22.9907 38.6381 21.9524 41.2149 21.9524C41.3793 21.9524 41.489 21.9524 41.7631 21.9524V21.4059C41.7631 20.6955 41.7083 20.4222 41.489 20.2036C41.2149 19.9304 40.9407 19.7664 40.4473 19.7664C39.5701 19.7664 38.4736 20.2583 37.9802 20.6955L37.3772 19.8757C38.4188 19.1653 39.5153 18.8374 40.6666 18.8374C41.7631 18.8374 42.4758 19.2746 42.8048 20.0397C42.9693 20.4769 42.9693 21.078 42.9693 21.7338L42.9144 24.3023C42.8596 25.5592 42.9693 25.8871 43.5175 26.215L42.9144 27.0894ZM41.16 22.8268C39.1864 22.8268 38.4736 23.4826 38.4736 24.6848C38.4736 25.6139 38.9122 26.1057 39.8443 26.1057C40.6666 26.1057 41.3793 25.6139 41.7631 24.9034L41.8179 22.8814C41.5986 22.8268 41.3245 22.8268 41.16 22.8268Z" fill="#222222"/>
<path d="M49.1097 20.2036C49.0549 20.1489 48.8904 20.1489 48.7808 20.1489C48.2874 20.1489 47.8488 20.3675 47.465 20.6954C47.0812 21.078 47.0264 21.2966 47.0264 21.9523V26.8161H45.8203V20.8047C45.8203 19.7664 45.601 19.2746 45.5461 19.1653L46.7523 18.8374C46.8071 18.9467 47.0264 19.5478 47.0264 20.0943C47.5747 19.2746 48.397 18.7827 49.2194 18.7827C49.3839 18.7827 49.6032 18.8374 49.658 18.8374L49.1097 20.2036Z" fill="#222222"/>
<path d="M54.6471 19.9304H53.0023V24.9581C53.0023 25.8325 53.2216 26.1057 53.9892 26.1057C54.3181 26.1057 54.5374 26.0511 54.7567 25.9418L54.9212 26.7068C54.5374 26.9254 54.0988 27.0347 53.5506 27.0347C53.1668 27.0347 52.8379 26.9801 52.5089 26.8161C51.9607 26.5429 51.7414 26.0511 51.7414 25.286V19.9304H50.6997V19.0013H51.7414C51.7414 18.3456 51.851 17.3072 51.851 17.034L53.112 16.7607C53.0572 17.034 52.9475 18.0723 52.9475 19.0013H54.9212L54.6471 19.9304Z" fill="#222222"/>
<path d="M60.3486 26.8708H59.1425L56.3464 19.1106L57.6074 18.8374L59.4166 24.193C59.5811 24.7395 59.7456 25.3953 59.8004 25.5046H59.8552C59.91 25.3953 60.0197 24.7941 60.239 24.193L62.0482 19.056H63.364L60.3486 26.8708Z" fill="#222222"/>
<path d="M65.8311 23.0999V23.2639C65.8311 23.9743 65.9407 24.5755 66.2148 24.958C66.6534 25.6138 67.3661 25.887 68.1337 25.887C68.9012 25.887 69.5043 25.6684 70.0526 25.1766L70.546 25.9417C69.8333 26.5428 68.9012 26.9254 67.9144 26.9254C65.7762 26.9254 64.4604 25.3405 64.4604 22.772C64.4604 21.4605 64.7346 20.6407 65.3925 19.821C65.9955 19.1106 66.7631 18.728 67.7499 18.728C68.5723 18.728 69.3398 19.0013 69.8881 19.5478C70.546 20.2582 70.7653 20.9686 70.7653 22.8267V22.9906H65.8311V23.0999ZM69.0109 20.4768C68.7368 20.0396 68.1885 19.7664 67.5854 19.7664C66.489 19.7664 65.8311 20.5861 65.7762 22.1709H69.3398C69.3947 21.3512 69.285 20.8593 69.0109 20.4768Z" fill="#222222"/>
<path d="M76.3026 20.2036C76.2478 20.1489 76.0833 20.1489 75.9737 20.1489C75.4802 20.1489 75.0416 20.3675 74.6579 20.6954C74.2741 21.078 74.2193 21.2966 74.2193 21.9523V26.8161H73.0131V20.8047C73.0131 19.7664 72.7938 19.2746 72.739 19.1653L73.9452 18.8374C74 18.9467 74.2193 19.5478 74.2193 20.0943C74.7675 19.2746 75.5899 18.7827 76.4123 18.7827C76.5767 18.7827 76.796 18.8374 76.8509 18.8374L76.3026 20.2036Z" fill="#222222"/>
<path d="M78.4407 26.8162V17.2526C78.4407 16.3236 78.2763 15.7771 78.2214 15.6678L79.4276 15.4492C79.4824 15.5585 79.6469 16.2143 79.6469 17.3073V26.8708H78.4407V26.8162ZM83.3201 26.8162L79.7565 22.4443L82.7171 19.056H84.2521L81.182 22.4443L84.9649 26.8162H83.3201Z" fill="#222222"/>
<path d="M87.103 23.0999V23.2639C87.103 23.9743 87.2127 24.5755 87.4868 24.958C87.9254 25.6138 88.6381 25.887 89.4057 25.887C90.1732 25.887 90.7763 25.6684 91.3245 25.1766L91.818 25.9417C91.1052 26.5428 90.1732 26.9254 89.1864 26.9254C87.0482 26.9254 85.7324 25.3405 85.7324 22.772C85.7324 21.4605 86.0065 20.6407 86.6644 19.821C87.2675 19.1106 88.0351 18.728 89.0219 18.728C89.8443 18.728 90.6118 19.0013 91.1601 19.5478C91.818 20.2582 92.0372 20.9686 92.0372 22.8267V22.9906H87.103V23.0999ZM90.3377 20.4768C90.0636 20.0396 89.5153 19.7664 88.9122 19.7664C87.8158 19.7664 87.1579 20.5861 87.103 22.1709H90.6666C90.6666 21.3512 90.557 20.8593 90.3377 20.4768Z" fill="#222222"/>
<path d="M97.2457 19.9304H95.601V24.9581C95.601 25.8325 95.8203 26.1057 96.5878 26.1057C96.9168 26.1057 97.136 26.0511 97.3553 25.9418L97.5198 26.7068C97.136 26.9254 96.6975 27.0347 96.1492 27.0347C95.7654 27.0347 95.4365 26.9801 95.1075 26.8161C94.5593 26.5429 94.34 26.0511 94.34 25.286V19.9304H93.2983V19.0013H94.34C94.34 18.3456 94.4497 17.3072 94.4497 17.034L95.7106 16.7607C95.6558 17.034 95.5461 18.0723 95.5461 19.0013H97.5198L97.2457 19.9304Z" fill="#222222"/>
</svg>
